<?xml version="1.0" encoding="UTF-8" standalone="no"?>
<!DOCTYPE svg PUBLIC "-//W3C//DTD SVG 1.1//EN"
 "http://www.w3.org/Graphics/SVG/1.1/DTD/svg11.dtd">
<!-- Generated by graphviz version 2.38.0 (20140413.2041)
 -->
<!-- Title: structs Pages: 1 -->
<svg width="248pt" height="128pt"
 viewBox="0.00 0.00 248.47 127.60" xmlns="http://www.w3.org/2000/svg" xmlns:xlink="http://www.w3.org/1999/xlink">
<g id="graph0" class="graph" transform="scale(1 1) rotate(0) translate(4 123.6)">
<title>structs</title>
<polygon fill="white" stroke="none" points="-4,4 -4,-123.6 244.472,-123.6 244.472,4 -4,4"/>
<!-- node0 -->
<g id="node1" class="node"><title>node0</title>
<polygon fill="none" stroke="black" points="154.493,-23.1 154.493,-97.5 240.472,-97.5 240.472,-23.1 154.493,-23.1"/>
<text text-anchor="middle" x="197.482" y="-80.9" font-family="Times New Roman,serif" font-size="14.00">Adder : Add</text>
<polyline fill="none" stroke="black" points="154.493,-72.7 240.472,-72.7 "/>
<text text-anchor="middle" x="175.821" y="-56.1" font-family="Times New Roman,serif" font-size="14.00">float</text>
<polyline fill="none" stroke="black" points="154.493,-47.9 197.149,-47.9 "/>
<text text-anchor="middle" x="175.821" y="-31.3" font-family="Times New Roman,serif" font-size="14.00">float</text>
<polyline fill="none" stroke="black" points="197.149,-23.1 197.149,-72.7 "/>
<text text-anchor="middle" x="218.478" y="-44.1" font-family="Times New Roman,serif" font-size="14.00">float</text>
</g>
<!-- node1 -->
<g id="node2" class="node"><title>node1</title>
<polygon fill="none" stroke="black" points="0,-0.5 0,-50.1 96.493,-50.1 96.493,-0.5 0,-0.5"/>
<text text-anchor="middle" x="48.2465" y="-33.5" font-family="Times New Roman,serif" font-size="14.00">Node #2 : Cos</text>
<polyline fill="none" stroke="black" points="0,-25.3 96.493,-25.3 "/>
<text text-anchor="middle" x="23.8282" y="-8.7" font-family="Times New Roman,serif" font-size="14.00">float</text>
<polyline fill="none" stroke="black" points="47.6564,-0.5 47.6564,-25.3 "/>
<text text-anchor="middle" x="71.9846" y="-8.7" font-family="Times New Roman,serif" font-size="14.00">float</text>
</g>
<!-- node1&#45;&gt;node0 -->
<g id="edge2" class="edge"><title>node1:out0&#45;&gt;node0:in1</title>
<path fill="none" stroke="black" d="M96.493,-13.3C120.294,-13.3 125.679,-29.6956 144.444,-34.1788"/>
<polygon fill="black" stroke="black" points="144.167,-37.6694 154.493,-35.3 144.943,-30.7126 144.167,-37.6694"/>
</g>
<!-- node2 -->
<g id="node3" class="node"><title>node2</title>
<polygon fill="none" stroke="black" points="1.554,-69.5 1.554,-119.1 94.939,-119.1 94.939,-69.5 1.554,-69.5"/>
<text text-anchor="middle" x="48.2465" y="-102.5" font-family="Times New Roman,serif" font-size="14.00">Node #1 : Sin</text>
<polyline fill="none" stroke="black" points="1.554,-94.3 94.939,-94.3 "/>
<text text-anchor="middle" x="24.8822" y="-77.7" font-family="Times New Roman,serif" font-size="14.00">float</text>
<polyline fill="none" stroke="black" points="48.2104,-69.5 48.2104,-94.3 "/>
<text text-anchor="middle" x="71.5386" y="-77.7" font-family="Times New Roman,serif" font-size="14.00">float</text>
</g>
<!-- node2&#45;&gt;node0 -->
<g id="edge1" class="edge"><title>node2:out0&#45;&gt;node0:in0</title>
<path fill="none" stroke="black" d="M96.2465,-82.3C120.136,-82.3 125.564,-65.9044 144.405,-61.4212"/>
<polygon fill="black" stroke="black" points="144.941,-64.8834 154.493,-60.3 144.168,-57.9262 144.941,-64.8834"/>
</g>
</g>
</svg>
