<?xml version="1.0" encoding="UTF-8" standalone="no"?>
<!DOCTYPE svg PUBLIC "-//W3C//DTD SVG 1.1//EN"
 "http://www.w3.org/Graphics/SVG/1.1/DTD/svg11.dtd">
<!-- Generated by graphviz version 2.38.0 (20140413.2041)
 -->
<!-- Title: structs Pages: 1 -->
<svg width="287pt" height="83pt"
 viewBox="0.00 0.00 286.88 83.40" xmlns="http://www.w3.org/2000/svg" xmlns:xlink="http://www.w3.org/1999/xlink">
<g id="graph0" class="graph" transform="scale(1 1) rotate(0) translate(4 79.4)">
<title>structs</title>
<polygon fill="white" stroke="none" points="-4,4 -4,-79.4 282.878,-79.4 282.878,4 -4,4"/>
<!-- struct4 -->
<g id="node1" class="node"><title>struct4</title>
<polygon fill="none" stroke="black" points="-1.42109e-014,-0.5 -1.42109e-014,-74.9 121.439,-74.9 121.439,-0.5 -1.42109e-014,-0.5"/>
<text text-anchor="middle" x="60.7195" y="-58.3" font-family="Times New Roman,serif" font-size="14.00">Name</text>
<polyline fill="none" stroke="black" points="-1.42109e-014,-50.1 121.439,-50.1 "/>
<text text-anchor="middle" x="28.0256" y="-33.5" font-family="Times New Roman,serif" font-size="14.00">Input 1</text>
<polyline fill="none" stroke="black" points="-1.42109e-014,-25.3 56.0512,-25.3 "/>
<text text-anchor="middle" x="28.0256" y="-8.7" font-family="Times New Roman,serif" font-size="14.00">Input 2</text>
<polyline fill="none" stroke="black" points="56.0512,-0.5 56.0512,-50.1 "/>
<text text-anchor="middle" x="88.7451" y="-33.5" font-family="Times New Roman,serif" font-size="14.00">Output 1</text>
<polyline fill="none" stroke="black" points="56.0512,-25.3 121.439,-25.3 "/>
<text text-anchor="middle" x="88.7451" y="-8.7" font-family="Times New Roman,serif" font-size="14.00">Output 2</text>
</g>
<!-- struct5 -->
<g id="node2" class="node"><title>struct5</title>
<polygon fill="none" stroke="black" points="157.439,-0.5 157.439,-74.9 278.878,-74.9 278.878,-0.5 157.439,-0.5"/>
<text text-anchor="middle" x="218.159" y="-58.3" font-family="Times New Roman,serif" font-size="14.00">Name</text>
<polyline fill="none" stroke="black" points="157.439,-50.1 278.878,-50.1 "/>
<text text-anchor="middle" x="185.465" y="-33.5" font-family="Times New Roman,serif" font-size="14.00">Input 1</text>
<polyline fill="none" stroke="black" points="157.439,-25.3 213.49,-25.3 "/>
<text text-anchor="middle" x="185.465" y="-8.7" font-family="Times New Roman,serif" font-size="14.00">Input 2</text>
<polyline fill="none" stroke="black" points="213.49,-0.5 213.49,-50.1 "/>
<text text-anchor="middle" x="246.184" y="-33.5" font-family="Times New Roman,serif" font-size="14.00">Output 1</text>
<polyline fill="none" stroke="black" points="213.49,-25.3 278.878,-25.3 "/>
<text text-anchor="middle" x="246.184" y="-8.7" font-family="Times New Roman,serif" font-size="14.00">Output 2</text>
</g>
<!-- struct4&#45;&gt;struct5 -->
<g id="edge1" class="edge"><title>struct4:out1&#45;&gt;struct5:in1</title>
<path fill="none" stroke="black" d="M121.439,-37.7C133.439,-37.7 138.689,-37.7 147.314,-37.7"/>
<polygon fill="black" stroke="black" points="147.439,-41.2001 157.439,-37.7 147.439,-34.2001 147.439,-41.2001"/>
</g>
</g>
</svg>
