<?xml version="1.0" encoding="UTF-8" standalone="no"?>
<!DOCTYPE svg PUBLIC "-//W3C//DTD SVG 1.1//EN"
 "http://www.w3.org/Graphics/SVG/1.1/DTD/svg11.dtd">
<!-- Generated by graphviz version 2.38.0 (20140413.2041)
 -->
<!-- Title: %3 Pages: 1 -->
<svg width="3380pt" height="517pt"
 viewBox="0.00 0.00 3380.06 517.00" xmlns="http://www.w3.org/2000/svg" xmlns:xlink="http://www.w3.org/1999/xlink">
<g id="graph0" class="graph" transform="scale(1 1) rotate(0) translate(4 513)">
<title>%3</title>
<polygon fill="white" stroke="none" points="-4,4 -4,-513 3376.06,-513 3376.06,4 -4,4"/>
<!-- node68 -->
<g id="node1" class="node"><title>node68</title>
<ellipse fill="#ff0000" stroke="black" cx="3351.37" cy="-406" rx="20.8887" ry="20.8887"/>
<text text-anchor="middle" x="3351.37" y="-401.8" font-family="Times New Roman,serif" font-size="14.00">35</text>
</g>
<!-- node67 -->
<g id="node2" class="node"><title>node67</title>
<ellipse fill="#0e0ef0" stroke="black" cx="112" cy="-464" rx="18" ry="18"/>
<text text-anchor="middle" x="112" y="-459.8" font-family="Times New Roman,serif" font-size="14.00">2</text>
</g>
<!-- node67&#45;&gt;node68 -->
<g id="edge1" class="edge"><title>node67&#45;&gt;node68</title>
<path fill="none" stroke="black" d="M130.173,-462.922C162.97,-460.958 236.795,-457 299,-457 299,-457 299,-457 3153.59,-457 3215.63,-457 3285.25,-432.952 3322.79,-417.882"/>
<polygon fill="black" stroke="black" points="3324.13,-421.115 3332.06,-414.081 3321.48,-414.638 3324.13,-421.115"/>
</g>
<!-- node66 -->
<g id="node3" class="node"><title>node66</title>
<ellipse fill="#1515e9" stroke="black" cx="206" cy="-356" rx="18" ry="18"/>
<text text-anchor="middle" x="206" y="-351.8" font-family="Times New Roman,serif" font-size="14.00">3</text>
</g>
<!-- node66&#45;&gt;node68 -->
<g id="edge2" class="edge"><title>node66&#45;&gt;node68</title>
<path fill="none" stroke="black" d="M222.543,-363.164C254.006,-376.989 327.796,-406 393,-406 393,-406 393,-406 3153.59,-406 3212.77,-406 3281.95,-406 3320.51,-406"/>
<polygon fill="black" stroke="black" points="3320.54,-409.5 3330.54,-406 3320.54,-402.5 3320.54,-409.5"/>
</g>
<!-- node65 -->
<g id="node4" class="node"><title>node65</title>
<ellipse fill="#0707f7" stroke="black" cx="18" cy="-315" rx="18" ry="18"/>
<text text-anchor="middle" x="18" y="-310.8" font-family="Times New Roman,serif" font-size="14.00">1</text>
</g>
<!-- node65&#45;&gt;node67 -->
<g id="edge4" class="edge"><title>node65&#45;&gt;node67</title>
<path fill="none" stroke="black" d="M28.1853,-330.057C42.2729,-353.125 70.0957,-398.579 94,-437 94.6913,-438.111 95.3998,-439.247 96.1164,-440.394"/>
<polygon fill="black" stroke="black" points="93.3391,-442.553 101.619,-449.164 99.2686,-438.833 93.3391,-442.553"/>
</g>
<!-- node55 -->
<g id="node14" class="node"><title>node55</title>
<ellipse fill="#0e0ef0" stroke="black" cx="112" cy="-248" rx="18" ry="18"/>
<text text-anchor="middle" x="112" y="-243.8" font-family="Times New Roman,serif" font-size="14.00">2</text>
</g>
<!-- node65&#45;&gt;node55 -->
<g id="edge3" class="edge"><title>node65&#45;&gt;node55</title>
<path fill="none" stroke="black" d="M32.9728,-304.824C47.6979,-294.1 71.1153,-277.046 88.4583,-264.416"/>
<polygon fill="black" stroke="black" points="90.8725,-266.988 96.8957,-258.272 86.7517,-261.329 90.8725,-266.988"/>
</g>
<!-- node64 -->
<g id="node5" class="node"><title>node64</title>
<ellipse fill="#0707f7" stroke="black" cx="18" cy="-491" rx="18" ry="18"/>
<text text-anchor="middle" x="18" y="-486.8" font-family="Times New Roman,serif" font-size="14.00">1</text>
</g>
<!-- node64&#45;&gt;node67 -->
<g id="edge5" class="edge"><title>node64&#45;&gt;node67</title>
<path fill="none" stroke="black" d="M35.4478,-486.173C49.0997,-482.166 68.774,-476.392 84.6233,-471.741"/>
<polygon fill="black" stroke="black" points="85.7748,-475.051 94.3845,-468.876 83.8035,-468.334 85.7748,-475.051"/>
</g>
<!-- node63 -->
<g id="node6" class="node"><title>node63</title>
<ellipse fill="#0707f7" stroke="black" cx="206" cy="-202" rx="18" ry="18"/>
<text text-anchor="middle" x="206" y="-197.8" font-family="Times New Roman,serif" font-size="14.00">1</text>
</g>
<!-- node28 -->
<g id="node41" class="node"><title>node28</title>
<ellipse fill="#1d1de1" stroke="black" cx="300" cy="-148" rx="18" ry="18"/>
<text text-anchor="middle" x="300" y="-143.8" font-family="Times New Roman,serif" font-size="14.00">4</text>
</g>
<!-- node63&#45;&gt;node28 -->
<g id="edge6" class="edge"><title>node63&#45;&gt;node28</title>
<path fill="none" stroke="black" d="M221.781,-193.324C236.181,-184.872 258.309,-171.884 275.192,-161.974"/>
<polygon fill="black" stroke="black" points="277.097,-164.914 283.95,-156.834 273.554,-158.877 277.097,-164.914"/>
</g>
<!-- node62 -->
<g id="node7" class="node"><title>node62</title>
<ellipse fill="#0707f7" stroke="black" cx="112" cy="-302" rx="18" ry="18"/>
<text text-anchor="middle" x="112" y="-297.8" font-family="Times New Roman,serif" font-size="14.00">1</text>
</g>
<!-- node62&#45;&gt;node66 -->
<g id="edge8" class="edge"><title>node62&#45;&gt;node66</title>
<path fill="none" stroke="black" d="M127.781,-310.676C142.181,-319.128 164.309,-332.116 181.192,-342.026"/>
<polygon fill="black" stroke="black" points="179.554,-345.123 189.95,-347.166 183.097,-339.086 179.554,-345.123"/>
</g>
<!-- node56 -->
<g id="node13" class="node"><title>node56</title>
<ellipse fill="#0e0ef0" stroke="black" cx="206" cy="-302" rx="18" ry="18"/>
<text text-anchor="middle" x="206" y="-297.8" font-family="Times New Roman,serif" font-size="14.00">2</text>
</g>
<!-- node62&#45;&gt;node56 -->
<g id="edge7" class="edge"><title>node62&#45;&gt;node56</title>
<path fill="none" stroke="black" d="M130.304,-302C143.54,-302 162.053,-302 177.337,-302"/>
<polygon fill="black" stroke="black" points="177.773,-305.5 187.773,-302 177.773,-298.5 177.773,-305.5"/>
</g>
<!-- node61 -->
<g id="node8" class="node"><title>node61</title>
<ellipse fill="#0707f7" stroke="black" cx="112" cy="-410" rx="18" ry="18"/>
<text text-anchor="middle" x="112" y="-405.8" font-family="Times New Roman,serif" font-size="14.00">1</text>
</g>
<!-- node61&#45;&gt;node66 -->
<g id="edge9" class="edge"><title>node61&#45;&gt;node66</title>
<path fill="none" stroke="black" d="M127.781,-401.324C142.181,-392.872 164.309,-379.884 181.192,-369.974"/>
<polygon fill="black" stroke="black" points="183.097,-372.914 189.95,-364.834 179.554,-366.877 183.097,-372.914"/>
</g>
<!-- node60 -->
<g id="node9" class="node"><title>node60</title>
<ellipse fill="#0707f7" stroke="black" cx="112" cy="-356" rx="18" ry="18"/>
<text text-anchor="middle" x="112" y="-351.8" font-family="Times New Roman,serif" font-size="14.00">1</text>
</g>
<!-- node60&#45;&gt;node66 -->
<g id="edge10" class="edge"><title>node60&#45;&gt;node66</title>
<path fill="none" stroke="black" d="M130.304,-356C143.54,-356 162.053,-356 177.337,-356"/>
<polygon fill="black" stroke="black" points="177.773,-359.5 187.773,-356 177.773,-352.5 177.773,-359.5"/>
</g>
<!-- node59 -->
<g id="node10" class="node"><title>node59</title>
<ellipse fill="#0707f7" stroke="black" cx="18" cy="-437" rx="18" ry="18"/>
<text text-anchor="middle" x="18" y="-432.8" font-family="Times New Roman,serif" font-size="14.00">1</text>
</g>
<!-- node59&#45;&gt;node67 -->
<g id="edge11" class="edge"><title>node59&#45;&gt;node67</title>
<path fill="none" stroke="black" d="M35.4478,-441.827C49.0997,-445.834 68.774,-451.608 84.6233,-456.259"/>
<polygon fill="black" stroke="black" points="83.8035,-459.666 94.3845,-459.124 85.7748,-452.949 83.8035,-459.666"/>
</g>
<!-- node58 -->
<g id="node11" class="node"><title>node58</title>
<ellipse fill="#0707f7" stroke="black" cx="206" cy="-79" rx="18" ry="18"/>
<text text-anchor="middle" x="206" y="-74.8" font-family="Times New Roman,serif" font-size="14.00">1</text>
</g>
<!-- node58&#45;&gt;node28 -->
<g id="edge13" class="edge"><title>node58&#45;&gt;node28</title>
<path fill="none" stroke="black" d="M220.973,-89.4796C235.784,-100.588 259.388,-118.291 276.76,-131.32"/>
<polygon fill="black" stroke="black" points="275.097,-134.448 285.197,-137.648 279.297,-128.848 275.097,-134.448"/>
</g>
<!-- node4 -->
<g id="node65" class="node"><title>node4</title>
<ellipse fill="#0e0ef0" stroke="black" cx="300" cy="-18" rx="18" ry="18"/>
<text text-anchor="middle" x="300" y="-13.8" font-family="Times New Roman,serif" font-size="14.00">2</text>
</g>
<!-- node58&#45;&gt;node4 -->
<g id="edge12" class="edge"><title>node58&#45;&gt;node4</title>
<path fill="none" stroke="black" d="M221.375,-69.4688C236.007,-59.767 258.913,-44.5791 276.057,-33.2122"/>
<polygon fill="black" stroke="black" points="278.022,-36.1088 284.422,-27.6656 274.154,-30.2747 278.022,-36.1088"/>
</g>
<!-- node57 -->
<g id="node12" class="node"><title>node57</title>
<ellipse fill="#0707f7" stroke="black" cx="488" cy="-63" rx="18" ry="18"/>
<text text-anchor="middle" x="488" y="-58.8" font-family="Times New Roman,serif" font-size="14.00">1</text>
</g>
<!-- node30 -->
<g id="node39" class="node"><title>node30</title>
<ellipse fill="#3332cc" stroke="black" cx="582" cy="-117" rx="18" ry="18"/>
<text text-anchor="middle" x="582" y="-112.8" font-family="Times New Roman,serif" font-size="14.00">7</text>
</g>
<!-- node57&#45;&gt;node30 -->
<g id="edge14" class="edge"><title>node57&#45;&gt;node30</title>
<path fill="none" stroke="black" d="M503.781,-71.676C518.181,-80.1282 540.309,-93.1164 557.192,-103.026"/>
<polygon fill="black" stroke="black" points="555.554,-106.123 565.95,-108.166 559.097,-100.086 555.554,-106.123"/>
</g>
<!-- node55&#45;&gt;node66 -->
<g id="edge17" class="edge"><title>node55&#45;&gt;node66</title>
<path fill="none" stroke="black" d="M124.281,-261.243C139.938,-279.623 168.425,-313.064 187.028,-334.903"/>
<polygon fill="black" stroke="black" points="184.478,-337.306 193.627,-342.649 189.806,-332.767 184.478,-337.306"/>
</g>
<!-- node33 -->
<g id="node36" class="node"><title>node33</title>
<ellipse fill="#1515e9" stroke="black" cx="206" cy="-148" rx="18" ry="18"/>
<text text-anchor="middle" x="206" y="-143.8" font-family="Times New Roman,serif" font-size="14.00">3</text>
</g>
<!-- node55&#45;&gt;node33 -->
<g id="edge16" class="edge"><title>node55&#45;&gt;node33</title>
<path fill="none" stroke="black" d="M125.027,-234.927C140.61,-217.99 167.943,-188.279 186.258,-168.372"/>
<polygon fill="black" stroke="black" points="189.066,-170.489 193.261,-160.76 183.914,-165.75 189.066,-170.489"/>
</g>
<!-- node32 -->
<g id="node37" class="node"><title>node32</title>
<ellipse fill="#1515e9" stroke="black" cx="582" cy="-235" rx="18" ry="18"/>
<text text-anchor="middle" x="582" y="-230.8" font-family="Times New Roman,serif" font-size="14.00">3</text>
</g>
<!-- node55&#45;&gt;node32 -->
<g id="edge15" class="edge"><title>node55&#45;&gt;node32</title>
<path fill="none" stroke="black" d="M130.178,-248.616C162.984,-249.738 236.824,-252 299,-252 299,-252 299,-252 395,-252 451.716,-252 517.757,-244.064 553.906,-239.037"/>
<polygon fill="black" stroke="black" points="554.714,-242.457 564.121,-237.582 553.727,-235.527 554.714,-242.457"/>
</g>
<!-- node54 -->
<g id="node15" class="node"><title>node54</title>
<ellipse fill="#a75757" stroke="black" cx="2158.72" cy="-269" rx="20.8887" ry="20.8887"/>
<text text-anchor="middle" x="2158.72" y="-264.8" font-family="Times New Roman,serif" font-size="14.00">23</text>
</g>
<!-- node41 -->
<g id="node28" class="node"><title>node41</title>
<ellipse fill="#ae5050" stroke="black" cx="2258.11" cy="-278" rx="20.8887" ry="20.8887"/>
<text text-anchor="middle" x="2258.11" y="-273.8" font-family="Times New Roman,serif" font-size="14.00">24</text>
</g>
<!-- node54&#45;&gt;node41 -->
<g id="edge18" class="edge"><title>node54&#45;&gt;node41</title>
<path fill="none" stroke="black" d="M2179.43,-270.821C2193.16,-272.09 2211.72,-273.805 2227.26,-275.241"/>
<polygon fill="black" stroke="black" points="2227.15,-278.746 2237.43,-276.181 2227.8,-271.776 2227.15,-278.746"/>
</g>
<!-- node53 -->
<g id="node16" class="node"><title>node53</title>
<ellipse fill="#916d6d" stroke="black" cx="1860.56" cy="-251" rx="20.8887" ry="20.8887"/>
<text text-anchor="middle" x="1860.56" y="-246.8" font-family="Times New Roman,serif" font-size="14.00">20</text>
</g>
<!-- node45 -->
<g id="node24" class="node"><title>node45</title>
<ellipse fill="#996565" stroke="black" cx="1959.95" cy="-269" rx="20.8887" ry="20.8887"/>
<text text-anchor="middle" x="1959.95" y="-264.8" font-family="Times New Roman,serif" font-size="14.00">21</text>
</g>
<!-- node53&#45;&gt;node45 -->
<g id="edge19" class="edge"><title>node53&#45;&gt;node45</title>
<path fill="none" stroke="black" d="M1881.27,-254.643C1895,-257.18 1913.56,-260.611 1929.1,-263.482"/>
<polygon fill="black" stroke="black" points="1928.8,-266.987 1939.27,-265.363 1930.07,-260.104 1928.8,-266.987"/>
</g>
<!-- node52 -->
<g id="node17" class="node"><title>node52</title>
<ellipse fill="#d32b2b" stroke="black" cx="2755.04" cy="-286" rx="20.8887" ry="20.8887"/>
<text text-anchor="middle" x="2755.04" y="-281.8" font-family="Times New Roman,serif" font-size="14.00">29</text>
</g>
<!-- node44 -->
<g id="node25" class="node"><title>node44</title>
<ellipse fill="#da2424" stroke="black" cx="2854.43" cy="-287" rx="20.8887" ry="20.8887"/>
<text text-anchor="middle" x="2854.43" y="-282.8" font-family="Times New Roman,serif" font-size="14.00">30</text>
</g>
<!-- node52&#45;&gt;node44 -->
<g id="edge20" class="edge"><title>node52&#45;&gt;node44</title>
<path fill="none" stroke="black" d="M2775.75,-286.202C2789.39,-286.342 2807.8,-286.531 2823.27,-286.69"/>
<polygon fill="black" stroke="black" points="2823.38,-290.192 2833.42,-286.795 2823.46,-283.192 2823.38,-290.192"/>
</g>
<!-- node51 -->
<g id="node18" class="node"><title>node51</title>
<ellipse fill="#bd4141" stroke="black" cx="2456.88" cy="-282" rx="20.8887" ry="20.8887"/>
<text text-anchor="middle" x="2456.88" y="-277.8" font-family="Times New Roman,serif" font-size="14.00">26</text>
</g>
<!-- node42 -->
<g id="node27" class="node"><title>node42</title>
<ellipse fill="#c43a3a" stroke="black" cx="2556.27" cy="-284" rx="20.8887" ry="20.8887"/>
<text text-anchor="middle" x="2556.27" y="-279.8" font-family="Times New Roman,serif" font-size="14.00">27</text>
</g>
<!-- node51&#45;&gt;node42 -->
<g id="edge21" class="edge"><title>node51&#45;&gt;node42</title>
<path fill="none" stroke="black" d="M2477.59,-282.405C2491.23,-282.685 2509.64,-283.063 2525.11,-283.381"/>
<polygon fill="black" stroke="black" points="2525.19,-286.883 2535.26,-283.589 2525.33,-279.884 2525.19,-286.883"/>
</g>
<!-- node50 -->
<g id="node19" class="node"><title>node50</title>
<ellipse fill="#a05e5e" stroke="black" cx="2059.34" cy="-269" rx="20.8887" ry="20.8887"/>
<text text-anchor="middle" x="2059.34" y="-264.8" font-family="Times New Roman,serif" font-size="14.00">22</text>
</g>
<!-- node50&#45;&gt;node54 -->
<g id="edge22" class="edge"><title>node50&#45;&gt;node54</title>
<path fill="none" stroke="black" d="M2080.04,-269C2093.68,-269 2112.09,-269 2127.56,-269"/>
<polygon fill="black" stroke="black" points="2127.71,-272.5 2137.71,-269 2127.71,-265.5 2127.71,-272.5"/>
</g>
<!-- node49 -->
<g id="node20" class="node"><title>node49</title>
<ellipse fill="#e11d1d" stroke="black" cx="2953.82" cy="-357" rx="20.8887" ry="20.8887"/>
<text text-anchor="middle" x="2953.82" y="-352.8" font-family="Times New Roman,serif" font-size="14.00">31</text>
</g>
<!-- node19 -->
<g id="node50" class="node"><title>node19</title>
<ellipse fill="#e91515" stroke="black" cx="3053.21" cy="-246" rx="20.8887" ry="20.8887"/>
<text text-anchor="middle" x="3053.21" y="-241.8" font-family="Times New Roman,serif" font-size="14.00">32</text>
</g>
<!-- node49&#45;&gt;node19 -->
<g id="edge23" class="edge"><title>node49&#45;&gt;node19</title>
<path fill="none" stroke="black" d="M2968.36,-341.566C2984.86,-322.761 3012.88,-290.817 3031.95,-269.084"/>
<polygon fill="black" stroke="black" points="3034.81,-271.128 3038.78,-261.303 3029.55,-266.512 3034.81,-271.128"/>
</g>
<!-- node48 -->
<g id="node21" class="node"><title>node48</title>
<ellipse fill="#8a7474" stroke="black" cx="1761.18" cy="-216" rx="20.8887" ry="20.8887"/>
<text text-anchor="middle" x="1761.18" y="-211.8" font-family="Times New Roman,serif" font-size="14.00">19</text>
</g>
<!-- node48&#45;&gt;node53 -->
<g id="edge24" class="edge"><title>node48&#45;&gt;node53</title>
<path fill="none" stroke="black" d="M1780.95,-222.748C1795.23,-227.881 1815.12,-235.028 1831.32,-240.849"/>
<polygon fill="black" stroke="black" points="1830.25,-244.184 1840.84,-244.272 1832.62,-237.596 1830.25,-244.184"/>
</g>
<!-- node47 -->
<g id="node22" class="node"><title>node47</title>
<ellipse fill="#cc3232" stroke="black" cx="2655.66" cy="-285" rx="20.8887" ry="20.8887"/>
<text text-anchor="middle" x="2655.66" y="-280.8" font-family="Times New Roman,serif" font-size="14.00">28</text>
</g>
<!-- node47&#45;&gt;node52 -->
<g id="edge25" class="edge"><title>node47&#45;&gt;node52</title>
<path fill="none" stroke="black" d="M2676.37,-285.202C2690,-285.342 2708.41,-285.531 2723.88,-285.69"/>
<polygon fill="black" stroke="black" points="2724,-289.192 2734.03,-285.795 2724.07,-282.192 2724,-289.192"/>
</g>
<!-- node46 -->
<g id="node23" class="node"><title>node46</title>
<ellipse fill="#b64848" stroke="black" cx="2357.5" cy="-282" rx="20.8887" ry="20.8887"/>
<text text-anchor="middle" x="2357.5" y="-277.8" font-family="Times New Roman,serif" font-size="14.00">25</text>
</g>
<!-- node46&#45;&gt;node51 -->
<g id="edge26" class="edge"><title>node46&#45;&gt;node51</title>
<path fill="none" stroke="black" d="M2378.2,-282C2391.84,-282 2410.25,-282 2425.72,-282"/>
<polygon fill="black" stroke="black" points="2425.87,-285.5 2435.87,-282 2425.87,-278.5 2425.87,-285.5"/>
</g>
<!-- node45&#45;&gt;node50 -->
<g id="edge27" class="edge"><title>node45&#45;&gt;node50</title>
<path fill="none" stroke="black" d="M1980.66,-269C1994.29,-269 2012.7,-269 2028.18,-269"/>
<polygon fill="black" stroke="black" points="2028.32,-272.5 2038.32,-269 2028.32,-265.5 2028.32,-272.5"/>
</g>
<!-- node44&#45;&gt;node49 -->
<g id="edge28" class="edge"><title>node44&#45;&gt;node49</title>
<path fill="none" stroke="black" d="M2871.95,-298.875C2887.44,-310.004 2910.77,-326.779 2928.4,-339.452"/>
<polygon fill="black" stroke="black" points="2926.38,-342.306 2936.54,-345.301 2930.46,-336.622 2926.38,-342.306"/>
</g>
<!-- node43 -->
<g id="node26" class="node"><title>node43</title>
<ellipse fill="#837b7b" stroke="black" cx="1661.79" cy="-216" rx="20.8887" ry="20.8887"/>
<text text-anchor="middle" x="1661.79" y="-211.8" font-family="Times New Roman,serif" font-size="14.00">18</text>
</g>
<!-- node43&#45;&gt;node48 -->
<g id="edge29" class="edge"><title>node43&#45;&gt;node48</title>
<path fill="none" stroke="black" d="M1682.5,-216C1696.13,-216 1714.54,-216 1730.01,-216"/>
<polygon fill="black" stroke="black" points="1730.16,-219.5 1740.16,-216 1730.16,-212.5 1730.16,-219.5"/>
</g>
<!-- node42&#45;&gt;node47 -->
<g id="edge30" class="edge"><title>node42&#45;&gt;node47</title>
<path fill="none" stroke="black" d="M2576.98,-284.202C2590.62,-284.342 2609.02,-284.531 2624.5,-284.69"/>
<polygon fill="black" stroke="black" points="2624.61,-288.192 2634.65,-284.795 2624.68,-281.192 2624.61,-288.192"/>
</g>
<!-- node41&#45;&gt;node46 -->
<g id="edge31" class="edge"><title>node41&#45;&gt;node46</title>
<path fill="none" stroke="black" d="M2278.82,-278.809C2292.55,-279.373 2311.11,-280.136 2326.64,-280.774"/>
<polygon fill="black" stroke="black" points="2326.68,-284.278 2336.82,-281.192 2326.97,-277.284 2326.68,-284.278"/>
</g>
<!-- node40 -->
<g id="node29" class="node"><title>node40</title>
<ellipse fill="#74748a" stroke="black" cx="1463.01" cy="-216" rx="20.8887" ry="20.8887"/>
<text text-anchor="middle" x="1463.01" y="-211.8" font-family="Times New Roman,serif" font-size="14.00">16</text>
</g>
<!-- node38 -->
<g id="node31" class="node"><title>node38</title>
<ellipse fill="#7b7b83" stroke="black" cx="1562.4" cy="-216" rx="20.8887" ry="20.8887"/>
<text text-anchor="middle" x="1562.4" y="-211.8" font-family="Times New Roman,serif" font-size="14.00">17</text>
</g>
<!-- node40&#45;&gt;node38 -->
<g id="edge32" class="edge"><title>node40&#45;&gt;node38</title>
<path fill="none" stroke="black" d="M1483.72,-216C1497.36,-216 1515.77,-216 1531.24,-216"/>
<polygon fill="black" stroke="black" points="1531.39,-219.5 1541.39,-216 1531.39,-212.5 1531.39,-219.5"/>
</g>
<!-- node39 -->
<g id="node30" class="node"><title>node39</title>
<ellipse fill="#5e5ea0" stroke="black" cx="1164.85" cy="-195" rx="20.8887" ry="20.8887"/>
<text text-anchor="middle" x="1164.85" y="-190.8" font-family="Times New Roman,serif" font-size="14.00">13</text>
</g>
<!-- node37 -->
<g id="node32" class="node"><title>node37</title>
<ellipse fill="#666699" stroke="black" cx="1264.24" cy="-213" rx="20.8887" ry="20.8887"/>
<text text-anchor="middle" x="1264.24" y="-208.8" font-family="Times New Roman,serif" font-size="14.00">14</text>
</g>
<!-- node39&#45;&gt;node37 -->
<g id="edge33" class="edge"><title>node39&#45;&gt;node37</title>
<path fill="none" stroke="black" d="M1185.56,-198.643C1199.29,-201.18 1217.85,-204.611 1233.39,-207.482"/>
<polygon fill="black" stroke="black" points="1233.09,-210.987 1243.56,-209.363 1234.37,-204.104 1233.09,-210.987"/>
</g>
<!-- node38&#45;&gt;node43 -->
<g id="edge34" class="edge"><title>node38&#45;&gt;node43</title>
<path fill="none" stroke="black" d="M1583.11,-216C1596.75,-216 1615.15,-216 1630.63,-216"/>
<polygon fill="black" stroke="black" points="1630.78,-219.5 1640.78,-216 1630.78,-212.5 1630.78,-219.5"/>
</g>
<!-- node36 -->
<g id="node33" class="node"><title>node36</title>
<ellipse fill="#6d6d91" stroke="black" cx="1363.63" cy="-216" rx="20.8887" ry="20.8887"/>
<text text-anchor="middle" x="1363.63" y="-211.8" font-family="Times New Roman,serif" font-size="14.00">15</text>
</g>
<!-- node37&#45;&gt;node36 -->
<g id="edge36" class="edge"><title>node37&#45;&gt;node36</title>
<path fill="none" stroke="black" d="M1284.95,-213.607C1298.59,-214.027 1316.99,-214.594 1332.47,-215.071"/>
<polygon fill="black" stroke="black" points="1332.51,-218.574 1342.62,-215.384 1332.73,-211.577 1332.51,-218.574"/>
</g>
<!-- node18 -->
<g id="node51" class="node"><title>node18</title>
<ellipse fill="#6d6d91" stroke="black" cx="1363.63" cy="-157" rx="20.8887" ry="20.8887"/>
<text text-anchor="middle" x="1363.63" y="-152.8" font-family="Times New Roman,serif" font-size="14.00">15</text>
</g>
<!-- node37&#45;&gt;node18 -->
<g id="edge35" class="edge"><title>node37&#45;&gt;node18</title>
<path fill="none" stroke="black" d="M1282.65,-202.988C1297.61,-194.388 1319.39,-181.861 1336.45,-172.052"/>
<polygon fill="black" stroke="black" points="1338.44,-174.944 1345.37,-166.925 1334.95,-168.876 1338.44,-174.944"/>
</g>
<!-- node36&#45;&gt;node40 -->
<g id="edge37" class="edge"><title>node36&#45;&gt;node40</title>
<path fill="none" stroke="black" d="M1384.34,-216C1397.97,-216 1416.38,-216 1431.85,-216"/>
<polygon fill="black" stroke="black" points="1432,-219.5 1442,-216 1432,-212.5 1432,-219.5"/>
</g>
<!-- node35 -->
<g id="node34" class="node"><title>node35</title>
<ellipse fill="#5757a7" stroke="black" cx="1065.47" cy="-113" rx="20.8887" ry="20.8887"/>
<text text-anchor="middle" x="1065.47" y="-108.8" font-family="Times New Roman,serif" font-size="14.00">12</text>
</g>
<!-- node35&#45;&gt;node39 -->
<g id="edge39" class="edge"><title>node35&#45;&gt;node39</title>
<path fill="none" stroke="black" d="M1082.11,-126.175C1097.97,-139.523 1122.67,-160.322 1140.77,-175.563"/>
<polygon fill="black" stroke="black" points="1138.66,-178.365 1148.57,-182.128 1143.17,-173.01 1138.66,-178.365"/>
</g>
<!-- node11 -->
<g id="node58" class="node"><title>node11</title>
<ellipse fill="#5e5ea0" stroke="black" cx="1164.85" cy="-113" rx="20.8887" ry="20.8887"/>
<text text-anchor="middle" x="1164.85" y="-108.8" font-family="Times New Roman,serif" font-size="14.00">13</text>
</g>
<!-- node35&#45;&gt;node11 -->
<g id="edge38" class="edge"><title>node35&#45;&gt;node11</title>
<path fill="none" stroke="black" d="M1086.17,-113C1099.81,-113 1118.22,-113 1133.69,-113"/>
<polygon fill="black" stroke="black" points="1133.84,-116.5 1143.84,-113 1133.84,-109.5 1133.84,-116.5"/>
</g>
<!-- node34 -->
<g id="node35" class="node"><title>node34</title>
<ellipse fill="#0707f7" stroke="black" cx="2953.82" cy="-300" rx="18" ry="18"/>
<text text-anchor="middle" x="2953.82" y="-295.8" font-family="Times New Roman,serif" font-size="14.00">1</text>
</g>
<!-- node34&#45;&gt;node19 -->
<g id="edge40" class="edge"><title>node34&#45;&gt;node19</title>
<path fill="none" stroke="black" d="M2970.04,-291.563C2984.98,-283.277 3008.07,-270.472 3025.98,-260.544"/>
<polygon fill="black" stroke="black" points="3027.75,-263.564 3034.79,-255.654 3024.35,-257.443 3027.75,-263.564"/>
</g>
<!-- node33&#45;&gt;node28 -->
<g id="edge41" class="edge"><title>node33&#45;&gt;node28</title>
<path fill="none" stroke="black" d="M224.304,-148C237.54,-148 256.053,-148 271.337,-148"/>
<polygon fill="black" stroke="black" points="271.773,-151.5 281.773,-148 271.773,-144.5 271.773,-151.5"/>
</g>
<!-- node20 -->
<g id="node49" class="node"><title>node20</title>
<ellipse fill="#3a3ac4" stroke="black" cx="676" cy="-119" rx="18" ry="18"/>
<text text-anchor="middle" x="676" y="-114.8" font-family="Times New Roman,serif" font-size="14.00">8</text>
</g>
<!-- node32&#45;&gt;node20 -->
<g id="edge42" class="edge"><title>node32&#45;&gt;node20</title>
<path fill="none" stroke="black" d="M593.915,-221.238C609.684,-201.354 638.998,-164.394 657.724,-140.783"/>
<polygon fill="black" stroke="black" points="660.628,-142.754 664.099,-132.744 655.143,-138.404 660.628,-142.754"/>
</g>
<!-- node31 -->
<g id="node38" class="node"><title>node31</title>
<ellipse fill="#0707f7" stroke="black" cx="206" cy="-18" rx="18" ry="18"/>
<text text-anchor="middle" x="206" y="-13.8" font-family="Times New Roman,serif" font-size="14.00">1</text>
</g>
<!-- node31&#45;&gt;node4 -->
<g id="edge43" class="edge"><title>node31&#45;&gt;node4</title>
<path fill="none" stroke="black" d="M224.304,-18C237.54,-18 256.053,-18 271.337,-18"/>
<polygon fill="black" stroke="black" points="271.773,-21.5001 281.773,-18 271.773,-14.5001 271.773,-21.5001"/>
</g>
<!-- node30&#45;&gt;node20 -->
<g id="edge44" class="edge"><title>node30&#45;&gt;node20</title>
<path fill="none" stroke="black" d="M600.304,-117.376C613.54,-117.664 632.053,-118.066 647.337,-118.399"/>
<polygon fill="black" stroke="black" points="647.699,-121.907 657.773,-118.626 647.852,-114.909 647.699,-121.907"/>
</g>
<!-- node29 -->
<g id="node40" class="node"><title>node29</title>
<ellipse fill="#f00e0e" stroke="black" cx="3152.59" cy="-302" rx="20.8887" ry="20.8887"/>
<text text-anchor="middle" x="3152.59" y="-297.8" font-family="Times New Roman,serif" font-size="14.00">33</text>
</g>
<!-- node3 -->
<g id="node66" class="node"><title>node3</title>
<ellipse fill="#f70707" stroke="black" cx="3251.98" cy="-330" rx="20.8887" ry="20.8887"/>
<text text-anchor="middle" x="3251.98" y="-325.8" font-family="Times New Roman,serif" font-size="14.00">34</text>
</g>
<!-- node29&#45;&gt;node3 -->
<g id="edge45" class="edge"><title>node29&#45;&gt;node3</title>
<path fill="none" stroke="black" d="M3172.83,-307.532C3186.84,-311.559 3206.05,-317.082 3221.92,-321.645"/>
<polygon fill="black" stroke="black" points="3221.2,-325.08 3231.78,-324.48 3223.14,-318.353 3221.2,-325.08"/>
</g>
<!-- node27 -->
<g id="node42" class="node"><title>node27</title>
<ellipse fill="#2424da" stroke="black" cx="394" cy="-60" rx="18" ry="18"/>
<text text-anchor="middle" x="394" y="-55.8" font-family="Times New Roman,serif" font-size="14.00">5</text>
</g>
<!-- node28&#45;&gt;node27 -->
<g id="edge49" class="edge"><title>node28&#45;&gt;node27</title>
<path fill="none" stroke="black" d="M313.792,-135.764C329.035,-121.184 354.693,-96.6413 372.665,-79.4508"/>
<polygon fill="black" stroke="black" points="375.509,-81.5736 380.316,-72.1321 370.671,-76.5151 375.509,-81.5736"/>
</g>
<!-- node12 -->
<g id="node57" class="node"><title>node12</title>
<ellipse fill="#2424da" stroke="black" cx="488" cy="-195" rx="18" ry="18"/>
<text text-anchor="middle" x="488" y="-190.8" font-family="Times New Roman,serif" font-size="14.00">5</text>
</g>
<!-- node28&#45;&gt;node12 -->
<g id="edge48" class="edge"><title>node28&#45;&gt;node12</title>
<path fill="none" stroke="black" d="M313.972,-159.362C328.104,-170.918 351.928,-188.081 376,-195 403.82,-202.997 437.209,-201.609 460.053,-199.097"/>
<polygon fill="black" stroke="black" points="460.559,-202.561 470.049,-197.851 459.693,-195.615 460.559,-202.561"/>
</g>
<!-- node7 -->
<g id="node62" class="node"><title>node7</title>
<ellipse fill="#2424da" stroke="black" cx="394" cy="-168" rx="18" ry="18"/>
<text text-anchor="middle" x="394" y="-163.8" font-family="Times New Roman,serif" font-size="14.00">5</text>
</g>
<!-- node28&#45;&gt;node7 -->
<g id="edge47" class="edge"><title>node28&#45;&gt;node7</title>
<path fill="none" stroke="black" d="M317.874,-151.668C331.362,-154.6 350.524,-158.766 366.119,-162.156"/>
<polygon fill="black" stroke="black" points="365.717,-165.651 376.233,-164.355 367.205,-158.81 365.717,-165.651"/>
</g>
<!-- node5 -->
<g id="node64" class="node"><title>node5</title>
<ellipse fill="#2424da" stroke="black" cx="394" cy="-114" rx="18" ry="18"/>
<text text-anchor="middle" x="394" y="-109.8" font-family="Times New Roman,serif" font-size="14.00">5</text>
</g>
<!-- node28&#45;&gt;node5 -->
<g id="edge46" class="edge"><title>node28&#45;&gt;node5</title>
<path fill="none" stroke="black" d="M317.025,-142.078C330.924,-136.941 351.288,-129.415 367.436,-123.448"/>
<polygon fill="black" stroke="black" points="368.683,-126.718 376.85,-119.969 366.257,-120.152 368.683,-126.718"/>
</g>
<!-- node26 -->
<g id="node43" class="node"><title>node26</title>
<ellipse fill="#2b2bd3" stroke="black" cx="488" cy="-117" rx="18" ry="18"/>
<text text-anchor="middle" x="488" y="-112.8" font-family="Times New Roman,serif" font-size="14.00">6</text>
</g>
<!-- node27&#45;&gt;node26 -->
<g id="edge50" class="edge"><title>node27&#45;&gt;node26</title>
<path fill="none" stroke="black" d="M409.781,-69.158C424.267,-78.1329 446.573,-91.9529 463.493,-102.436"/>
<polygon fill="black" stroke="black" points="461.911,-105.573 472.255,-107.865 465.598,-99.6227 461.911,-105.573"/>
</g>
<!-- node26&#45;&gt;node30 -->
<g id="edge51" class="edge"><title>node26&#45;&gt;node30</title>
<path fill="none" stroke="black" d="M506.304,-117C519.54,-117 538.053,-117 553.337,-117"/>
<polygon fill="black" stroke="black" points="553.773,-120.5 563.773,-117 553.773,-113.5 553.773,-120.5"/>
</g>
<!-- node25 -->
<g id="node44" class="node"><title>node25</title>
<ellipse fill="#6d6d91" stroke="black" cx="1363.63" cy="-54" rx="20.8887" ry="20.8887"/>
<text text-anchor="middle" x="1363.63" y="-49.8" font-family="Times New Roman,serif" font-size="14.00">15</text>
</g>
<!-- node24 -->
<g id="node45" class="node"><title>node24</title>
<ellipse fill="#666699" stroke="black" cx="1264.24" cy="-54" rx="20.8887" ry="20.8887"/>
<text text-anchor="middle" x="1264.24" y="-49.8" font-family="Times New Roman,serif" font-size="14.00">14</text>
</g>
<!-- node24&#45;&gt;node25 -->
<g id="edge52" class="edge"><title>node24&#45;&gt;node25</title>
<path fill="none" stroke="black" d="M1284.95,-54C1298.59,-54 1316.99,-54 1332.47,-54"/>
<polygon fill="black" stroke="black" points="1332.62,-57.5001 1342.62,-54 1332.62,-50.5001 1332.62,-57.5001"/>
</g>
<!-- node23 -->
<g id="node46" class="node"><title>node23</title>
<ellipse fill="#5757a7" stroke="black" cx="1065.47" cy="-54" rx="20.8887" ry="20.8887"/>
<text text-anchor="middle" x="1065.47" y="-49.8" font-family="Times New Roman,serif" font-size="14.00">12</text>
</g>
<!-- node22 -->
<g id="node47" class="node"><title>node22</title>
<ellipse fill="#5e5ea0" stroke="black" cx="1164.85" cy="-54" rx="20.8887" ry="20.8887"/>
<text text-anchor="middle" x="1164.85" y="-49.8" font-family="Times New Roman,serif" font-size="14.00">13</text>
</g>
<!-- node23&#45;&gt;node22 -->
<g id="edge53" class="edge"><title>node23&#45;&gt;node22</title>
<path fill="none" stroke="black" d="M1086.17,-54C1099.81,-54 1118.22,-54 1133.69,-54"/>
<polygon fill="black" stroke="black" points="1133.84,-57.5001 1143.84,-54 1133.84,-50.5001 1133.84,-57.5001"/>
</g>
<!-- node22&#45;&gt;node24 -->
<g id="edge54" class="edge"><title>node22&#45;&gt;node24</title>
<path fill="none" stroke="black" d="M1185.56,-54C1199.2,-54 1217.61,-54 1233.08,-54"/>
<polygon fill="black" stroke="black" points="1233.23,-57.5001 1243.23,-54 1233.23,-50.5001 1233.23,-57.5001"/>
</g>
<!-- node21 -->
<g id="node48" class="node"><title>node21</title>
<ellipse fill="#4141bd" stroke="black" cx="770" cy="-74" rx="18" ry="18"/>
<text text-anchor="middle" x="770" y="-69.8" font-family="Times New Roman,serif" font-size="14.00">9</text>
</g>
<!-- node9 -->
<g id="node60" class="node"><title>node9</title>
<ellipse fill="#5050ae" stroke="black" cx="966.08" cy="-80" rx="20.8887" ry="20.8887"/>
<text text-anchor="middle" x="966.08" y="-75.8" font-family="Times New Roman,serif" font-size="14.00">11</text>
</g>
<!-- node21&#45;&gt;node9 -->
<g id="edge56" class="edge"><title>node21&#45;&gt;node9</title>
<path fill="none" stroke="black" d="M788.223,-74.5325C821.266,-75.554 893.922,-77.8001 935.088,-79.0728"/>
<polygon fill="black" stroke="black" points="935.215,-82.5783 945.318,-79.3891 935.431,-75.5816 935.215,-82.5783"/>
</g>
<!-- node6 -->
<g id="node63" class="node"><title>node6</title>
<ellipse fill="#4848b6" stroke="black" cx="866.693" cy="-30" rx="20.8887" ry="20.8887"/>
<text text-anchor="middle" x="866.693" y="-25.8" font-family="Times New Roman,serif" font-size="14.00">10</text>
</g>
<!-- node21&#45;&gt;node6 -->
<g id="edge55" class="edge"><title>node21&#45;&gt;node6</title>
<path fill="none" stroke="black" d="M786.637,-66.7343C800.601,-60.2458 821.376,-50.5926 838.125,-42.8101"/>
<polygon fill="black" stroke="black" points="839.845,-45.87 847.439,-38.482 836.895,-39.5219 839.845,-45.87"/>
</g>
<!-- node20&#45;&gt;node21 -->
<g id="edge58" class="edge"><title>node20&#45;&gt;node21</title>
<path fill="none" stroke="black" d="M692.607,-111.366C706.834,-104.407 728.084,-94.0134 744.562,-85.9533"/>
<polygon fill="black" stroke="black" points="746.179,-89.0589 753.624,-81.5209 743.103,-82.7708 746.179,-89.0589"/>
</g>
<!-- node0 -->
<g id="node69" class="node"><title>node0</title>
<ellipse fill="#4141bd" stroke="black" cx="770" cy="-128" rx="18" ry="18"/>
<text text-anchor="middle" x="770" y="-123.8" font-family="Times New Roman,serif" font-size="14.00">9</text>
</g>
<!-- node20&#45;&gt;node0 -->
<g id="edge57" class="edge"><title>node20&#45;&gt;node0</title>
<path fill="none" stroke="black" d="M694.304,-120.693C707.669,-122 726.413,-123.834 741.781,-125.337"/>
<polygon fill="black" stroke="black" points="741.48,-128.824 751.773,-126.315 742.161,-121.858 741.48,-128.824"/>
</g>
<!-- node19&#45;&gt;node29 -->
<g id="edge59" class="edge"><title>node19&#45;&gt;node29</title>
<path fill="none" stroke="black" d="M3071.62,-256.012C3086.57,-264.612 3108.36,-277.139 3125.42,-286.948"/>
<polygon fill="black" stroke="black" points="3123.92,-290.124 3134.33,-292.075 3127.41,-284.056 3123.92,-290.124"/>
</g>
<!-- node16 -->
<g id="node53" class="node"><title>node16</title>
<ellipse fill="#74748a" stroke="black" cx="1562.4" cy="-157" rx="20.8887" ry="20.8887"/>
<text text-anchor="middle" x="1562.4" y="-152.8" font-family="Times New Roman,serif" font-size="14.00">16</text>
</g>
<!-- node18&#45;&gt;node16 -->
<g id="edge60" class="edge"><title>node18&#45;&gt;node16</title>
<path fill="none" stroke="black" d="M1384.58,-157C1419.29,-157 1490.96,-157 1531.59,-157"/>
<polygon fill="black" stroke="black" points="1531.69,-160.5 1541.69,-157 1531.69,-153.5 1531.69,-160.5"/>
</g>
<!-- node17 -->
<g id="node52" class="node"><title>node17</title>
<ellipse fill="#7b7b83" stroke="black" cx="1661.79" cy="-157" rx="20.8887" ry="20.8887"/>
<text text-anchor="middle" x="1661.79" y="-152.8" font-family="Times New Roman,serif" font-size="14.00">17</text>
</g>
<!-- node17&#45;&gt;node19 -->
<g id="edge61" class="edge"><title>node17&#45;&gt;node19</title>
<path fill="none" stroke="black" d="M1682.6,-155.159C1718.06,-152.027 1794.72,-146 1859.56,-146 1859.56,-146 1859.56,-146 2855.43,-146 2909.03,-146 2927.03,-140.146 2974.51,-165 2999.4,-178.028 3020.9,-202.071 3034.93,-220.591"/>
<polygon fill="black" stroke="black" points="3032.29,-222.907 3041.02,-228.909 3037.93,-218.772 3032.29,-222.907"/>
</g>
<!-- node16&#45;&gt;node17 -->
<g id="edge62" class="edge"><title>node16&#45;&gt;node17</title>
<path fill="none" stroke="black" d="M1583.11,-157C1596.75,-157 1615.15,-157 1630.63,-157"/>
<polygon fill="black" stroke="black" points="1630.78,-160.5 1640.78,-157 1630.78,-153.5 1630.78,-160.5"/>
</g>
<!-- node15 -->
<g id="node54" class="node"><title>node15</title>
<ellipse fill="#0707f7" stroke="black" cx="1264.24" cy="-156" rx="18" ry="18"/>
<text text-anchor="middle" x="1264.24" y="-151.8" font-family="Times New Roman,serif" font-size="14.00">1</text>
</g>
<!-- node15&#45;&gt;node18 -->
<g id="edge63" class="edge"><title>node15&#45;&gt;node18</title>
<path fill="none" stroke="black" d="M1282.65,-156.179C1296.47,-156.321 1316.13,-156.523 1332.5,-156.691"/>
<polygon fill="black" stroke="black" points="1332.65,-160.192 1342.68,-156.795 1332.72,-153.193 1332.65,-160.192"/>
</g>
<!-- node14 -->
<g id="node55" class="node"><title>node14</title>
<ellipse fill="#0707f7" stroke="black" cx="2953.82" cy="-246" rx="18" ry="18"/>
<text text-anchor="middle" x="2953.82" y="-241.8" font-family="Times New Roman,serif" font-size="14.00">1</text>
</g>
<!-- node14&#45;&gt;node19 -->
<g id="edge64" class="edge"><title>node14&#45;&gt;node19</title>
<path fill="none" stroke="black" d="M2972.23,-246C2986.05,-246 3005.71,-246 3022.07,-246"/>
<polygon fill="black" stroke="black" points="3022.26,-249.5 3032.26,-246 3022.26,-242.5 3022.26,-249.5"/>
</g>
<!-- node13 -->
<g id="node56" class="node"><title>node13</title>
<ellipse fill="#0707f7" stroke="black" cx="2953.82" cy="-192" rx="18" ry="18"/>
<text text-anchor="middle" x="2953.82" y="-187.8" font-family="Times New Roman,serif" font-size="14.00">1</text>
</g>
<!-- node13&#45;&gt;node19 -->
<g id="edge65" class="edge"><title>node13&#45;&gt;node19</title>
<path fill="none" stroke="black" d="M2970.04,-200.438C2984.98,-208.723 3008.07,-221.528 3025.98,-231.456"/>
<polygon fill="black" stroke="black" points="3024.35,-234.557 3034.79,-236.346 3027.75,-228.436 3024.35,-234.557"/>
</g>
<!-- node12&#45;&gt;node20 -->
<g id="edge66" class="edge"><title>node12&#45;&gt;node20</title>
<path fill="none" stroke="black" d="M504.858,-188.52C537.116,-175.34 610.614,-145.308 649.609,-129.375"/>
<polygon fill="black" stroke="black" points="651.249,-132.486 659.182,-125.463 648.601,-126.006 651.249,-132.486"/>
</g>
<!-- node10 -->
<g id="node59" class="node"><title>node10</title>
<ellipse fill="#666699" stroke="black" cx="1463.01" cy="-108" rx="20.8887" ry="20.8887"/>
<text text-anchor="middle" x="1463.01" y="-103.8" font-family="Times New Roman,serif" font-size="14.00">14</text>
</g>
<!-- node11&#45;&gt;node10 -->
<g id="edge67" class="edge"><title>node11&#45;&gt;node10</title>
<path fill="none" stroke="black" d="M1185.75,-112.664C1236.64,-111.805 1371.82,-109.523 1432.18,-108.504"/>
<polygon fill="black" stroke="black" points="1432.27,-112.003 1442.21,-108.334 1432.15,-105.004 1432.27,-112.003"/>
</g>
<!-- node10&#45;&gt;node19 -->
<g id="edge68" class="edge"><title>node10&#45;&gt;node19</title>
<path fill="none" stroke="black" d="M1483.85,-108C1519.33,-108 1596.05,-108 1660.79,-108 1660.79,-108 1660.79,-108 2855.43,-108 2910.85,-108 2929.03,-113.334 2974.51,-145 3002.12,-164.219 3024.34,-196.238 3037.83,-219.072"/>
<polygon fill="black" stroke="black" points="3034.9,-220.991 3042.91,-227.93 3040.97,-217.512 3034.9,-220.991"/>
</g>
<!-- node9&#45;&gt;node35 -->
<g id="edge70" class="edge"><title>node9&#45;&gt;node35</title>
<path fill="none" stroke="black" d="M985.858,-86.3627C1000.14,-91.2019 1020.02,-97.9405 1036.22,-103.429"/>
<polygon fill="black" stroke="black" points="1035.15,-106.762 1045.75,-106.657 1037.4,-100.133 1035.15,-106.762"/>
</g>
<!-- node9&#45;&gt;node23 -->
<g id="edge69" class="edge"><title>node9&#45;&gt;node23</title>
<path fill="none" stroke="black" d="M986.321,-74.8632C1000.33,-71.1241 1019.54,-65.9948 1035.41,-61.7579"/>
<polygon fill="black" stroke="black" points="1036.51,-65.0871 1045.27,-59.1261 1034.7,-58.324 1036.51,-65.0871"/>
</g>
<!-- node8 -->
<g id="node61" class="node"><title>node8</title>
<ellipse fill="#4848b6" stroke="black" cx="866.693" cy="-128" rx="20.8887" ry="20.8887"/>
<text text-anchor="middle" x="866.693" y="-123.8" font-family="Times New Roman,serif" font-size="14.00">10</text>
</g>
<!-- node8&#45;&gt;node9 -->
<g id="edge71" class="edge"><title>node8&#45;&gt;node9</title>
<path fill="none" stroke="black" d="M885.556,-119.196C900.153,-112.001 921.029,-101.712 937.73,-93.4804"/>
<polygon fill="black" stroke="black" points="939.579,-96.4711 947.002,-88.9107 936.484,-90.1923 939.579,-96.4711"/>
</g>
<!-- node4&#45;&gt;node20 -->
<g id="edge72" class="edge"><title>node4&#45;&gt;node20</title>
<path fill="none" stroke="black" d="M318.116,-17.4079C353.785,-16.6259 438.378,-17.1357 506,-36 561.308,-51.429 620.285,-84.7632 651.855,-104.166"/>
<polygon fill="black" stroke="black" points="650.035,-107.156 660.373,-109.474 653.737,-101.215 650.035,-107.156"/>
</g>
<!-- node3&#45;&gt;node68 -->
<g id="edge73" class="edge"><title>node3&#45;&gt;node68</title>
<path fill="none" stroke="black" d="M3269.06,-342.55C3284.66,-354.724 3308.52,-373.347 3326.37,-387.273"/>
<polygon fill="black" stroke="black" points="3324.55,-390.291 3334.58,-393.684 3328.85,-384.772 3324.55,-390.291"/>
</g>
<!-- node2 -->
<g id="node67" class="node"><title>node2</title>
<ellipse fill="#0707f7" stroke="black" cx="3152.59" cy="-245" rx="18" ry="18"/>
<text text-anchor="middle" x="3152.59" y="-240.8" font-family="Times New Roman,serif" font-size="14.00">1</text>
</g>
<!-- node2&#45;&gt;node3 -->
<g id="edge74" class="edge"><title>node2&#45;&gt;node3</title>
<path fill="none" stroke="black" d="M3166.73,-256.463C3182.44,-270.183 3209.03,-293.389 3228.14,-310.066"/>
<polygon fill="black" stroke="black" points="3225.98,-312.828 3235.82,-316.767 3230.59,-307.554 3225.98,-312.828"/>
</g>
<!-- node1 -->
<g id="node68" class="node"><title>node1</title>
<ellipse fill="#0707f7" stroke="black" cx="3152.59" cy="-359" rx="18" ry="18"/>
<text text-anchor="middle" x="3152.59" y="-354.8" font-family="Times New Roman,serif" font-size="14.00">1</text>
</g>
<!-- node1&#45;&gt;node3 -->
<g id="edge75" class="edge"><title>node1&#45;&gt;node3</title>
<path fill="none" stroke="black" d="M3170.11,-354.081C3184.31,-349.852 3205.12,-343.655 3222.08,-338.607"/>
<polygon fill="black" stroke="black" points="3223.45,-341.848 3232.04,-335.64 3221.46,-335.139 3223.45,-341.848"/>
</g>
<!-- node0&#45;&gt;node8 -->
<g id="edge76" class="edge"><title>node0&#45;&gt;node8</title>
<path fill="none" stroke="black" d="M788.368,-128C801.556,-128 820.016,-128 835.592,-128"/>
<polygon fill="black" stroke="black" points="835.814,-131.5 845.814,-128 835.814,-124.5 835.814,-131.5"/>
</g>
</g>
</svg>
