<?xml version="1.0" encoding="UTF-8" standalone="no"?>
<!DOCTYPE svg PUBLIC "-//W3C//DTD SVG 1.1//EN"
 "http://www.w3.org/Graphics/SVG/1.1/DTD/svg11.dtd">
<!-- Generated by graphviz version 2.38.0 (20140413.2041)
 -->
<!-- Title: %3 Pages: 1 -->
<svg width="7029pt" height="1203pt"
 viewBox="0.00 0.00 7029.14 1202.70" xmlns="http://www.w3.org/2000/svg" xmlns:xlink="http://www.w3.org/1999/xlink">
<g id="graph0" class="graph" transform="scale(1 1) rotate(0) translate(4 1198.7)">
<title>%3</title>
<polygon fill="white" stroke="none" points="-4,4 -4,-1198.7 7025.14,-1198.7 7025.14,4 -4,4"/>
<!-- node68 -->
<g id="node1" class="node"><title>node68</title>
<ellipse fill="#ff0000" stroke="black" cx="6952.7" cy="-962.287" rx="68.3825" ry="68.3825"/>
<text text-anchor="middle" x="6952.7" y="-958.087" font-family="Times New Roman,serif" font-size="14.00">35_EMPTY_P</text>
</g>
<!-- node67 -->
<g id="node2" class="node"><title>node67</title>
<ellipse fill="#0e0ef0" stroke="black" cx="231.119" cy="-1079.29" rx="66.0743" ry="66.0743"/>
<text text-anchor="middle" x="231.119" y="-1075.09" font-family="Times New Roman,serif" font-size="14.00">2_ACTIVE_P</text>
</g>
<!-- node67&#45;&gt;node68 -->
<g id="edge1" class="edge"><title>node67&#45;&gt;node68</title>
<path fill="none" stroke="black" d="M296.682,-1067.56C367.347,-1055.75 484.105,-1039.29 585.524,-1039.29 585.524,-1039.29 585.524,-1039.29 6547.87,-1039.29 6664.39,-1039.29 6796.54,-1007.97 6876.99,-985.278"/>
<polygon fill="black" stroke="black" points="6878.37,-988.525 6887.02,-982.417 6876.45,-981.793 6878.37,-988.525"/>
</g>
<!-- node66 -->
<g id="node3" class="node"><title>node66</title>
<ellipse fill="#1515e9" stroke="black" cx="408.822" cy="-816.287" rx="53.3322" ry="53.3322"/>
<text text-anchor="middle" x="408.822" y="-812.087" font-family="Times New Roman,serif" font-size="14.00">3_EMPTY</text>
</g>
<!-- node66&#45;&gt;node68 -->
<g id="edge2" class="edge"><title>node66&#45;&gt;node68</title>
<path fill="none" stroke="black" d="M453.183,-846.361C519.157,-889.101 650.13,-962.287 773.424,-962.287 773.424,-962.287 773.424,-962.287 6547.87,-962.287 6661.32,-962.287 6792.71,-962.287 6874.02,-962.287"/>
<polygon fill="black" stroke="black" points="6874.17,-965.787 6884.17,-962.287 6874.17,-958.787 6874.17,-965.787"/>
</g>
<!-- node65 -->
<g id="node4" class="node"><title>node65</title>
<ellipse fill="#0707f7" stroke="black" cx="53.416" cy="-728.287" rx="53.3322" ry="53.3322"/>
<text text-anchor="middle" x="53.416" y="-724.087" font-family="Times New Roman,serif" font-size="14.00">1_EMPTY</text>
</g>
<!-- node65&#45;&gt;node67 -->
<g id="edge4" class="edge"><title>node65&#45;&gt;node67</title>
<path fill="none" stroke="black" d="M69.3243,-779.289C87.2355,-836.331 120.502,-930.29 164.832,-1003.29 168.895,-1009.98 173.547,-1016.66 178.455,-1023.14"/>
<polygon fill="black" stroke="black" points="175.862,-1025.51 184.784,-1031.22 181.372,-1021.19 175.862,-1025.51"/>
</g>
<!-- node55 -->
<g id="node14" class="node"><title>node55</title>
<ellipse fill="#0e0ef0" stroke="black" cx="231.119" cy="-566.287" rx="53.3322" ry="53.3322"/>
<text text-anchor="middle" x="231.119" y="-562.087" font-family="Times New Roman,serif" font-size="14.00">2_EMPTY</text>
</g>
<!-- node65&#45;&gt;node55 -->
<g id="edge3" class="edge"><title>node65&#45;&gt;node55</title>
<path fill="none" stroke="black" d="M93.4102,-692.334C120.139,-667.69 155.714,-634.889 183.874,-608.925"/>
<polygon fill="black" stroke="black" points="186.254,-611.491 191.234,-602.139 181.509,-606.345 186.254,-611.491"/>
</g>
<!-- node64 -->
<g id="node5" class="node"><title>node64</title>
<ellipse fill="#0707f7" stroke="black" cx="53.416" cy="-1141.29" rx="53.3322" ry="53.3322"/>
<text text-anchor="middle" x="53.416" y="-1137.09" font-family="Times New Roman,serif" font-size="14.00">1_EMPTY</text>
</g>
<!-- node64&#45;&gt;node67 -->
<g id="edge5" class="edge"><title>node64&#45;&gt;node67</title>
<path fill="none" stroke="black" d="M104.295,-1123.69C121.229,-1117.71 140.493,-1110.91 158.769,-1104.46"/>
<polygon fill="black" stroke="black" points="159.953,-1107.76 168.219,-1101.13 157.624,-1101.16 159.953,-1107.76"/>
</g>
<!-- node63 -->
<g id="node6" class="node"><title>node63</title>
<ellipse fill="#0707f7" stroke="black" cx="408.822" cy="-462.287" rx="53.3322" ry="53.3322"/>
<text text-anchor="middle" x="408.822" y="-458.087" font-family="Times New Roman,serif" font-size="14.00">1_EMPTY</text>
</g>
<!-- node28 -->
<g id="node41" class="node"><title>node28</title>
<ellipse fill="#1d1de1" stroke="black" cx="586.524" cy="-337.287" rx="63.7258" ry="63.7258"/>
<text text-anchor="middle" x="586.524" y="-333.087" font-family="Times New Roman,serif" font-size="14.00">4_EMPTY_P</text>
</g>
<!-- node63&#45;&gt;node28 -->
<g id="edge6" class="edge"><title>node63&#45;&gt;node28</title>
<path fill="none" stroke="black" d="M452.803,-431.708C474.796,-416.062 501.918,-396.767 525.899,-379.706"/>
<polygon fill="black" stroke="black" points="528.118,-382.423 534.237,-373.774 524.06,-376.719 528.118,-382.423"/>
</g>
<!-- node62 -->
<g id="node7" class="node"><title>node62</title>
<ellipse fill="#0707f7" stroke="black" cx="231.119" cy="-691.287" rx="53.3322" ry="53.3322"/>
<text text-anchor="middle" x="231.119" y="-687.087" font-family="Times New Roman,serif" font-size="14.00">1_EMPTY</text>
</g>
<!-- node62&#45;&gt;node66 -->
<g id="edge8" class="edge"><title>node62&#45;&gt;node66</title>
<path fill="none" stroke="black" d="M275.101,-721.865C299.669,-739.344 330.637,-761.376 356.479,-779.76"/>
<polygon fill="black" stroke="black" points="354.497,-782.646 364.675,-785.591 358.555,-776.942 354.497,-782.646"/>
</g>
<!-- node56 -->
<g id="node13" class="node"><title>node56</title>
<ellipse fill="#0e0ef0" stroke="black" cx="408.822" cy="-691.287" rx="53.3322" ry="53.3322"/>
<text text-anchor="middle" x="408.822" y="-687.087" font-family="Times New Roman,serif" font-size="14.00">2_EMPTY</text>
</g>
<!-- node62&#45;&gt;node56 -->
<g id="edge7" class="edge"><title>node62&#45;&gt;node56</title>
<path fill="none" stroke="black" d="M284.835,-691.287C303.773,-691.287 325.318,-691.287 345.027,-691.287"/>
<polygon fill="black" stroke="black" points="345.142,-694.787 355.142,-691.287 345.142,-687.787 345.142,-694.787"/>
</g>
<!-- node61 -->
<g id="node8" class="node"><title>node61</title>
<ellipse fill="#0707f7" stroke="black" cx="231.119" cy="-941.287" rx="53.3322" ry="53.3322"/>
<text text-anchor="middle" x="231.119" y="-937.087" font-family="Times New Roman,serif" font-size="14.00">1_EMPTY</text>
</g>
<!-- node61&#45;&gt;node66 -->
<g id="edge9" class="edge"><title>node61&#45;&gt;node66</title>
<path fill="none" stroke="black" d="M275.101,-910.708C299.669,-893.23 330.637,-871.198 356.479,-852.813"/>
<polygon fill="black" stroke="black" points="358.555,-855.632 364.675,-846.983 354.497,-849.928 358.555,-855.632"/>
</g>
<!-- node60 -->
<g id="node9" class="node"><title>node60</title>
<ellipse fill="#0707f7" stroke="black" cx="231.119" cy="-816.287" rx="53.3322" ry="53.3322"/>
<text text-anchor="middle" x="231.119" y="-812.087" font-family="Times New Roman,serif" font-size="14.00">1_EMPTY</text>
</g>
<!-- node60&#45;&gt;node66 -->
<g id="edge10" class="edge"><title>node60&#45;&gt;node66</title>
<path fill="none" stroke="black" d="M284.835,-816.287C303.773,-816.287 325.318,-816.287 345.027,-816.287"/>
<polygon fill="black" stroke="black" points="345.142,-819.787 355.142,-816.287 345.142,-812.787 345.142,-819.787"/>
</g>
<!-- node59 -->
<g id="node10" class="node"><title>node59</title>
<ellipse fill="#0707f7" stroke="black" cx="53.416" cy="-1016.29" rx="53.3322" ry="53.3322"/>
<text text-anchor="middle" x="53.416" y="-1012.09" font-family="Times New Roman,serif" font-size="14.00">1_EMPTY</text>
</g>
<!-- node59&#45;&gt;node67 -->
<g id="edge11" class="edge"><title>node59&#45;&gt;node67</title>
<path fill="none" stroke="black" d="M103.827,-1034C120.941,-1040.14 140.479,-1047.15 158.989,-1053.78"/>
<polygon fill="black" stroke="black" points="157.962,-1057.13 168.557,-1057.21 160.325,-1050.54 157.962,-1057.13"/>
</g>
<!-- node58 -->
<g id="node11" class="node"><title>node58</title>
<ellipse fill="#0707f7" stroke="black" cx="408.822" cy="-205.287" rx="53.3322" ry="53.3322"/>
<text text-anchor="middle" x="408.822" y="-201.087" font-family="Times New Roman,serif" font-size="14.00">1_EMPTY</text>
</g>
<!-- node58&#45;&gt;node28 -->
<g id="edge13" class="edge"><title>node58&#45;&gt;node28</title>
<path fill="none" stroke="black" d="M451.907,-236.904C474.345,-253.761 502.31,-274.77 526.849,-293.205"/>
<polygon fill="black" stroke="black" points="524.929,-296.141 535.026,-299.349 529.133,-290.544 524.929,-296.141"/>
</g>
<!-- node4 -->
<g id="node65" class="node"><title>node4</title>
<ellipse fill="#0e0ef0" stroke="black" cx="586.524" cy="-66.2868" rx="66.0743" ry="66.0743"/>
<text text-anchor="middle" x="586.524" y="-62.0868" font-family="Times New Roman,serif" font-size="14.00">2_ACTIVE_P</text>
</g>
<!-- node58&#45;&gt;node4 -->
<g id="edge12" class="edge"><title>node58&#45;&gt;node4</title>
<path fill="none" stroke="black" d="M451.461,-172.346C473.804,-154.67 501.722,-132.584 526.288,-113.149"/>
<polygon fill="black" stroke="black" points="528.464,-115.89 534.135,-106.941 524.121,-110.4 528.464,-115.89"/>
</g>
<!-- node57 -->
<g id="node12" class="node"><title>node57</title>
<ellipse fill="#0707f7" stroke="black" cx="962.324" cy="-142.287" rx="53.3322" ry="53.3322"/>
<text text-anchor="middle" x="962.324" y="-138.087" font-family="Times New Roman,serif" font-size="14.00">1_EMPTY</text>
</g>
<!-- node30 -->
<g id="node39" class="node"><title>node30</title>
<ellipse fill="#3332cc" stroke="black" cx="1152.9" cy="-280.287" rx="66.0743" ry="66.0743"/>
<text text-anchor="middle" x="1152.9" y="-276.087" font-family="Times New Roman,serif" font-size="14.00">7_ACTIVE_P</text>
</g>
<!-- node57&#45;&gt;node30 -->
<g id="edge14" class="edge"><title>node57&#45;&gt;node30</title>
<path fill="none" stroke="black" d="M1006.11,-173.601C1031.03,-191.834 1062.86,-215.132 1090.43,-235.301"/>
<polygon fill="black" stroke="black" points="1088.69,-238.37 1098.83,-241.452 1092.83,-232.721 1088.69,-238.37"/>
</g>
<!-- node55&#45;&gt;node66 -->
<g id="edge17" class="edge"><title>node55&#45;&gt;node66</title>
<path fill="none" stroke="black" d="M272.217,-600.471C281.185,-609.287 290.172,-619.162 297.406,-629.287 332.775,-678.792 322.792,-701.924 355.406,-753.287 358.709,-758.489 362.395,-763.735 366.239,-768.86"/>
<polygon fill="black" stroke="black" points="363.49,-771.026 372.379,-776.79 369.025,-766.74 363.49,-771.026"/>
</g>
<!-- node33 -->
<g id="node36" class="node"><title>node33</title>
<ellipse fill="#1515e9" stroke="black" cx="408.822" cy="-337.287" rx="53.3322" ry="53.3322"/>
<text text-anchor="middle" x="408.822" y="-333.087" font-family="Times New Roman,serif" font-size="14.00">3_EMPTY</text>
</g>
<!-- node55&#45;&gt;node33 -->
<g id="edge16" class="edge"><title>node55&#45;&gt;node33</title>
<path fill="none" stroke="black" d="M263.153,-523.151C287.707,-489.355 323.119,-441.345 355.406,-400.287 359.215,-395.443 363.236,-390.434 367.287,-385.456"/>
<polygon fill="black" stroke="black" points="370.023,-387.639 373.653,-377.685 364.609,-383.203 370.023,-387.639"/>
</g>
<!-- node32 -->
<g id="node37" class="node"><title>node32</title>
<ellipse fill="#1515e9" stroke="black" cx="1152.9" cy="-527.287" rx="53.3322" ry="53.3322"/>
<text text-anchor="middle" x="1152.9" y="-523.087" font-family="Times New Roman,serif" font-size="14.00">3_EMPTY</text>
</g>
<!-- node55&#45;&gt;node32 -->
<g id="edge15" class="edge"><title>node55&#45;&gt;node32</title>
<path fill="none" stroke="black" d="M284.805,-567.497C353.861,-568.977 478.756,-571.287 585.524,-571.287 585.524,-571.287 585.524,-571.287 775.424,-571.287 886.98,-571.287 1015.88,-551.992 1090.24,-538.956"/>
<polygon fill="black" stroke="black" points="1091.12,-542.354 1100.36,-537.161 1089.9,-535.461 1091.12,-542.354"/>
</g>
<!-- node54 -->
<g id="node15" class="node"><title>node54</title>
<ellipse fill="#a75757" stroke="black" cx="4445.24" cy="-707.287" rx="76.469" ry="76.469"/>
<text text-anchor="middle" x="4445.24" y="-703.087" font-family="Times New Roman,serif" font-size="14.00">23_EMPTY_I_P</text>
</g>
<!-- node41 -->
<g id="node28" class="node"><title>node41</title>
<ellipse fill="#ae5050" stroke="black" cx="4656.21" cy="-707.287" rx="76.469" ry="76.469"/>
<text text-anchor="middle" x="4656.21" y="-703.087" font-family="Times New Roman,serif" font-size="14.00">24_EMPTY_I_P</text>
</g>
<!-- node54&#45;&gt;node41 -->
<g id="edge18" class="edge"><title>node54&#45;&gt;node41</title>
<path fill="none" stroke="black" d="M4521.98,-707.287C4537.31,-707.287 4553.53,-707.287 4569.19,-707.287"/>
<polygon fill="black" stroke="black" points="4569.38,-710.787 4579.38,-707.287 4569.38,-703.787 4569.38,-710.787"/>
</g>
<!-- node53 -->
<g id="node16" class="node"><title>node53</title>
<ellipse fill="#916d6d" stroke="black" cx="3812.33" cy="-707.287" rx="76.469" ry="76.469"/>
<text text-anchor="middle" x="3812.33" y="-703.087" font-family="Times New Roman,serif" font-size="14.00">20_EMPTY_I_P</text>
</g>
<!-- node45 -->
<g id="node24" class="node"><title>node45</title>
<ellipse fill="#996565" stroke="black" cx="4023.3" cy="-707.287" rx="76.469" ry="76.469"/>
<text text-anchor="middle" x="4023.3" y="-703.087" font-family="Times New Roman,serif" font-size="14.00">21_EMPTY_I_P</text>
</g>
<!-- node53&#45;&gt;node45 -->
<g id="edge19" class="edge"><title>node53&#45;&gt;node45</title>
<path fill="none" stroke="black" d="M3889.07,-707.287C3904.4,-707.287 3920.63,-707.287 3936.28,-707.287"/>
<polygon fill="black" stroke="black" points="3936.47,-710.787 3946.47,-707.287 3936.47,-703.787 3936.47,-710.787"/>
</g>
<!-- node52 -->
<g id="node17" class="node"><title>node52</title>
<ellipse fill="#d32b2b" stroke="black" cx="5711.05" cy="-721.287" rx="76.469" ry="76.469"/>
<text text-anchor="middle" x="5711.05" y="-717.087" font-family="Times New Roman,serif" font-size="14.00">29_EMPTY_I_P</text>
</g>
<!-- node44 -->
<g id="node25" class="node"><title>node44</title>
<ellipse fill="#da2424" stroke="black" cx="5922.02" cy="-736.287" rx="76.469" ry="76.469"/>
<text text-anchor="middle" x="5922.02" y="-732.087" font-family="Times New Roman,serif" font-size="14.00">30_EMPTY_I_P</text>
</g>
<!-- node52&#45;&gt;node44 -->
<g id="edge20" class="edge"><title>node52&#45;&gt;node44</title>
<path fill="none" stroke="black" d="M5787.5,-726.702C5803.03,-727.817 5819.5,-728.999 5835.37,-730.138"/>
<polygon fill="black" stroke="black" points="5835.47,-733.654 5845.69,-730.879 5835.97,-726.672 5835.47,-733.654"/>
</g>
<!-- node51 -->
<g id="node18" class="node"><title>node51</title>
<ellipse fill="#bd4141" stroke="black" cx="5078.15" cy="-708.287" rx="76.469" ry="76.469"/>
<text text-anchor="middle" x="5078.15" y="-704.087" font-family="Times New Roman,serif" font-size="14.00">26_EMPTY_I_P</text>
</g>
<!-- node42 -->
<g id="node27" class="node"><title>node42</title>
<ellipse fill="#c43a3a" stroke="black" cx="5289.12" cy="-710.287" rx="76.469" ry="76.469"/>
<text text-anchor="middle" x="5289.12" y="-706.087" font-family="Times New Roman,serif" font-size="14.00">27_EMPTY_I_P</text>
</g>
<!-- node51&#45;&gt;node42 -->
<g id="edge21" class="edge"><title>node51&#45;&gt;node42</title>
<path fill="none" stroke="black" d="M5154.89,-709.012C5170.22,-709.158 5186.44,-709.314 5202.1,-709.464"/>
<polygon fill="black" stroke="black" points="5202.25,-712.965 5212.29,-709.561 5202.32,-705.965 5202.25,-712.965"/>
</g>
<!-- node50 -->
<g id="node19" class="node"><title>node50</title>
<ellipse fill="#a05e5e" stroke="black" cx="4234.27" cy="-707.287" rx="76.469" ry="76.469"/>
<text text-anchor="middle" x="4234.27" y="-703.087" font-family="Times New Roman,serif" font-size="14.00">22_EMPTY_I_P</text>
</g>
<!-- node50&#45;&gt;node54 -->
<g id="edge22" class="edge"><title>node50&#45;&gt;node54</title>
<path fill="none" stroke="black" d="M4311.01,-707.287C4326.34,-707.287 4342.57,-707.287 4358.22,-707.287"/>
<polygon fill="black" stroke="black" points="4358.41,-710.787 4368.41,-707.287 4358.41,-703.787 4358.41,-710.787"/>
</g>
<!-- node49 -->
<g id="node20" class="node"><title>node49</title>
<ellipse fill="#e11d1d" stroke="black" cx="6135.67" cy="-855.287" rx="79.3174" ry="79.3174"/>
<text text-anchor="middle" x="6135.67" y="-851.087" font-family="Times New Roman,serif" font-size="14.00">31_ACTIVE_I_P</text>
</g>
<!-- node19 -->
<g id="node50" class="node"><title>node19</title>
<ellipse fill="#e91515" stroke="black" cx="6341.27" cy="-579.287" rx="68.3825" ry="68.3825"/>
<text text-anchor="middle" x="6341.27" y="-575.087" font-family="Times New Roman,serif" font-size="14.00">32_EMPTY_P</text>
</g>
<!-- node49&#45;&gt;node19 -->
<g id="edge23" class="edge"><title>node49&#45;&gt;node19</title>
<path fill="none" stroke="black" d="M6189.9,-796.829C6198.46,-786.823 6207.05,-776.392 6214.82,-766.287 6244.62,-727.562 6275.22,-682.078 6298.74,-645.664"/>
<polygon fill="black" stroke="black" points="6301.79,-647.393 6304.25,-637.09 6295.9,-643.606 6301.79,-647.393"/>
</g>
<!-- node48 -->
<g id="node21" class="node"><title>node48</title>
<ellipse fill="#8a7474" stroke="black" cx="3601.36" cy="-706.287" rx="76.469" ry="76.469"/>
<text text-anchor="middle" x="3601.36" y="-702.087" font-family="Times New Roman,serif" font-size="14.00">19_EMPTY_I_P</text>
</g>
<!-- node48&#45;&gt;node53 -->
<g id="edge24" class="edge"><title>node48&#45;&gt;node53</title>
<path fill="none" stroke="black" d="M3678.1,-706.649C3693.43,-706.723 3709.66,-706.8 3725.31,-706.875"/>
<polygon fill="black" stroke="black" points="3725.49,-710.376 3735.5,-706.924 3725.52,-703.376 3725.49,-710.376"/>
</g>
<!-- node47 -->
<g id="node22" class="node"><title>node47</title>
<ellipse fill="#cc3232" stroke="black" cx="5500.09" cy="-714.287" rx="76.469" ry="76.469"/>
<text text-anchor="middle" x="5500.09" y="-710.087" font-family="Times New Roman,serif" font-size="14.00">28_EMPTY_I_P</text>
</g>
<!-- node47&#45;&gt;node52 -->
<g id="edge25" class="edge"><title>node47&#45;&gt;node52</title>
<path fill="none" stroke="black" d="M5576.82,-716.824C5592.25,-717.341 5608.58,-717.888 5624.33,-718.415"/>
<polygon fill="black" stroke="black" points="5624.46,-721.922 5634.57,-718.758 5624.7,-714.925 5624.46,-721.922"/>
</g>
<!-- node46 -->
<g id="node23" class="node"><title>node46</title>
<ellipse fill="#b64848" stroke="black" cx="4867.18" cy="-707.287" rx="76.469" ry="76.469"/>
<text text-anchor="middle" x="4867.18" y="-703.087" font-family="Times New Roman,serif" font-size="14.00">25_EMPTY_I_P</text>
</g>
<!-- node46&#45;&gt;node51 -->
<g id="edge26" class="edge"><title>node46&#45;&gt;node51</title>
<path fill="none" stroke="black" d="M4943.92,-707.649C4959.25,-707.723 4975.47,-707.8 4991.13,-707.875"/>
<polygon fill="black" stroke="black" points="4991.3,-711.376 5001.32,-707.924 4991.33,-704.376 4991.3,-711.376"/>
</g>
<!-- node45&#45;&gt;node50 -->
<g id="edge27" class="edge"><title>node45&#45;&gt;node50</title>
<path fill="none" stroke="black" d="M4100.04,-707.287C4115.37,-707.287 4131.6,-707.287 4147.25,-707.287"/>
<polygon fill="black" stroke="black" points="4147.44,-710.787 4157.44,-707.287 4147.44,-703.787 4147.44,-710.787"/>
</g>
<!-- node44&#45;&gt;node49 -->
<g id="edge28" class="edge"><title>node44&#45;&gt;node49</title>
<path fill="none" stroke="black" d="M5989.12,-773.45C6010.75,-785.611 6034.97,-799.228 6057.35,-811.812"/>
<polygon fill="black" stroke="black" points="6055.72,-814.913 6066.15,-816.763 6059.15,-808.811 6055.72,-814.913"/>
</g>
<!-- node43 -->
<g id="node26" class="node"><title>node43</title>
<ellipse fill="#837b7b" stroke="black" cx="3387.72" cy="-676.287" rx="76.469" ry="76.469"/>
<text text-anchor="middle" x="3387.72" y="-672.087" font-family="Times New Roman,serif" font-size="14.00">18_EMPTY_I_P</text>
</g>
<!-- node43&#45;&gt;node48 -->
<g id="edge29" class="edge"><title>node43&#45;&gt;node48</title>
<path fill="none" stroke="black" d="M3463.64,-686.906C3480.44,-689.287 3498.37,-691.83 3515.54,-694.264"/>
<polygon fill="black" stroke="black" points="3515.16,-697.744 3525.55,-695.682 3516.14,-690.813 3515.16,-697.744"/>
</g>
<!-- node42&#45;&gt;node47 -->
<g id="edge30" class="edge"><title>node42&#45;&gt;node47</title>
<path fill="none" stroke="black" d="M5365.85,-711.737C5381.28,-712.032 5397.61,-712.344 5413.36,-712.646"/>
<polygon fill="black" stroke="black" points="5413.54,-716.15 5423.61,-712.842 5413.67,-709.151 5413.54,-716.15"/>
</g>
<!-- node41&#45;&gt;node46 -->
<g id="edge31" class="edge"><title>node41&#45;&gt;node46</title>
<path fill="none" stroke="black" d="M4732.95,-707.287C4748.28,-707.287 4764.5,-707.287 4780.16,-707.287"/>
<polygon fill="black" stroke="black" points="4780.35,-710.787 4790.35,-707.287 4780.35,-703.787 4780.35,-710.787"/>
</g>
<!-- node40 -->
<g id="node29" class="node"><title>node40</title>
<ellipse fill="#74748a" stroke="black" cx="2963.11" cy="-666.287" rx="76.469" ry="76.469"/>
<text text-anchor="middle" x="2963.11" y="-662.087" font-family="Times New Roman,serif" font-size="14.00">16_EMPTY_I_P</text>
</g>
<!-- node38 -->
<g id="node31" class="node"><title>node38</title>
<ellipse fill="#7b7b83" stroke="black" cx="3174.08" cy="-675.287" rx="76.469" ry="76.469"/>
<text text-anchor="middle" x="3174.08" y="-671.087" font-family="Times New Roman,serif" font-size="14.00">17_EMPTY_I_P</text>
</g>
<!-- node40&#45;&gt;node38 -->
<g id="edge32" class="edge"><title>node40&#45;&gt;node38</title>
<path fill="none" stroke="black" d="M3039.55,-669.536C3054.99,-670.201 3071.35,-670.906 3087.13,-671.585"/>
<polygon fill="black" stroke="black" points="3087.25,-675.094 3097.4,-672.027 3087.55,-668.1 3087.25,-675.094"/>
</g>
<!-- node39 -->
<g id="node30" class="node"><title>node39</title>
<ellipse fill="#5e5ea0" stroke="black" cx="2330.2" cy="-565.287" rx="68.3825" ry="68.3825"/>
<text text-anchor="middle" x="2330.2" y="-561.087" font-family="Times New Roman,serif" font-size="14.00">13_EMPTY_P</text>
</g>
<!-- node37 -->
<g id="node32" class="node"><title>node37</title>
<ellipse fill="#666699" stroke="black" cx="2541.17" cy="-580.287" rx="76.469" ry="76.469"/>
<text text-anchor="middle" x="2541.17" y="-576.087" font-family="Times New Roman,serif" font-size="14.00">14_EMPTY_I_P</text>
</g>
<!-- node39&#45;&gt;node37 -->
<g id="edge33" class="edge"><title>node39&#45;&gt;node37</title>
<path fill="none" stroke="black" d="M2398.76,-570.136C2416.47,-571.407 2435.8,-572.795 2454.32,-574.125"/>
<polygon fill="black" stroke="black" points="2454.29,-577.631 2464.52,-574.856 2454.79,-570.649 2454.29,-577.631"/>
</g>
<!-- node38&#45;&gt;node43 -->
<g id="edge34" class="edge"><title>node38&#45;&gt;node43</title>
<path fill="none" stroke="black" d="M3250.59,-675.644C3266.81,-675.72 3284.07,-675.802 3300.66,-675.88"/>
<polygon fill="black" stroke="black" points="3300.87,-679.381 3310.88,-675.928 3300.9,-672.381 3300.87,-679.381"/>
</g>
<!-- node36 -->
<g id="node33" class="node"><title>node36</title>
<ellipse fill="#6d6d91" stroke="black" cx="2752.14" cy="-661.287" rx="68.3825" ry="68.3825"/>
<text text-anchor="middle" x="2752.14" y="-657.087" font-family="Times New Roman,serif" font-size="14.00">15_EMPTY_P</text>
</g>
<!-- node37&#45;&gt;node36 -->
<g id="edge36" class="edge"><title>node37&#45;&gt;node36</title>
<path fill="none" stroke="black" d="M2612.63,-607.597C2633.89,-615.838 2657.26,-624.898 2678.65,-633.19"/>
<polygon fill="black" stroke="black" points="2677.42,-636.465 2688.01,-636.815 2679.95,-629.938 2677.42,-636.465"/>
</g>
<!-- node18 -->
<g id="node51" class="node"><title>node18</title>
<ellipse fill="#6d6d91" stroke="black" cx="2752.14" cy="-442.287" rx="68.3825" ry="68.3825"/>
<text text-anchor="middle" x="2752.14" y="-438.087" font-family="Times New Roman,serif" font-size="14.00">15_EMPTY_P</text>
</g>
<!-- node37&#45;&gt;node18 -->
<g id="edge35" class="edge"><title>node37&#45;&gt;node18</title>
<path fill="none" stroke="black" d="M2605.44,-538.508C2630.91,-521.687 2660.27,-502.297 2685.93,-485.349"/>
<polygon fill="black" stroke="black" points="2688.07,-488.134 2694.48,-479.703 2684.21,-482.293 2688.07,-488.134"/>
</g>
<!-- node36&#45;&gt;node40 -->
<g id="edge37" class="edge"><title>node36&#45;&gt;node40</title>
<path fill="none" stroke="black" d="M2820.7,-662.903C2838.41,-663.327 2857.74,-663.789 2876.26,-664.233"/>
<polygon fill="black" stroke="black" points="2876.37,-667.736 2886.45,-664.477 2876.54,-660.738 2876.37,-667.736"/>
</g>
<!-- node35 -->
<g id="node34" class="node"><title>node35</title>
<ellipse fill="#5757a7" stroke="black" cx="2127.28" cy="-371.287" rx="68.3825" ry="68.3825"/>
<text text-anchor="middle" x="2127.28" y="-367.087" font-family="Times New Roman,serif" font-size="14.00">12_EMPTY_P</text>
</g>
<!-- node35&#45;&gt;node39 -->
<g id="edge39" class="edge"><title>node35&#45;&gt;node39</title>
<path fill="none" stroke="black" d="M2177.17,-418.496C2206.08,-446.413 2242.82,-481.879 2272.93,-510.956"/>
<polygon fill="black" stroke="black" points="2270.81,-513.774 2280.44,-518.202 2275.67,-508.738 2270.81,-513.774"/>
</g>
<!-- node11 -->
<g id="node58" class="node"><title>node11</title>
<ellipse fill="#5e5ea0" stroke="black" cx="2330.2" cy="-371.287" rx="68.3825" ry="68.3825"/>
<text text-anchor="middle" x="2330.2" y="-367.087" font-family="Times New Roman,serif" font-size="14.00">13_EMPTY_P</text>
</g>
<!-- node35&#45;&gt;node11 -->
<g id="edge38" class="edge"><title>node35&#45;&gt;node11</title>
<path fill="none" stroke="black" d="M2195.74,-371.287C2213.63,-371.287 2233.09,-371.287 2251.48,-371.287"/>
<polygon fill="black" stroke="black" points="2251.57,-374.787 2261.57,-371.287 2251.57,-367.787 2251.57,-374.787"/>
</g>
<!-- node34 -->
<g id="node35" class="node"><title>node34</title>
<ellipse fill="#0707f7" stroke="black" cx="6135.67" cy="-704.287" rx="53.3322" ry="53.3322"/>
<text text-anchor="middle" x="6135.67" y="-700.087" font-family="Times New Roman,serif" font-size="14.00">1_EMPTY</text>
</g>
<!-- node34&#45;&gt;node19 -->
<g id="edge40" class="edge"><title>node34&#45;&gt;node19</title>
<path fill="none" stroke="black" d="M6181.6,-676.7C6208.67,-660.079 6243.64,-638.608 6273.86,-620.055"/>
<polygon fill="black" stroke="black" points="6275.97,-622.868 6282.66,-614.653 6272.31,-616.903 6275.97,-622.868"/>
</g>
<!-- node33&#45;&gt;node28 -->
<g id="edge41" class="edge"><title>node33&#45;&gt;node28</title>
<path fill="none" stroke="black" d="M462.538,-337.287C478.192,-337.287 495.627,-337.287 512.335,-337.287"/>
<polygon fill="black" stroke="black" points="512.621,-340.787 522.621,-337.287 512.621,-333.787 512.621,-340.787"/>
</g>
<!-- node20 -->
<g id="node49" class="node"><title>node20</title>
<ellipse fill="#3a3ac4" stroke="black" cx="1340.8" cy="-281.287" rx="63.7258" ry="63.7258"/>
<text text-anchor="middle" x="1340.8" y="-277.087" font-family="Times New Roman,serif" font-size="14.00">8_EMPTY_P</text>
</g>
<!-- node32&#45;&gt;node20 -->
<g id="edge42" class="edge"><title>node32&#45;&gt;node20</title>
<path fill="none" stroke="black" d="M1185.85,-484.998C1216.05,-445.037 1261.63,-384.726 1295.36,-340.089"/>
<polygon fill="black" stroke="black" points="1298.28,-342.033 1301.51,-331.945 1292.69,-337.813 1298.28,-342.033"/>
</g>
<!-- node31 -->
<g id="node38" class="node"><title>node31</title>
<ellipse fill="#0707f7" stroke="black" cx="408.822" cy="-66.2868" rx="53.3322" ry="53.3322"/>
<text text-anchor="middle" x="408.822" y="-62.0868" font-family="Times New Roman,serif" font-size="14.00">1_EMPTY</text>
</g>
<!-- node31&#45;&gt;node4 -->
<g id="edge43" class="edge"><title>node31&#45;&gt;node4</title>
<path fill="none" stroke="black" d="M462.538,-66.2868C477.381,-66.2868 493.825,-66.2868 509.732,-66.2868"/>
<polygon fill="black" stroke="black" points="510.086,-69.7869 520.085,-66.2868 510.085,-62.7869 510.086,-69.7869"/>
</g>
<!-- node30&#45;&gt;node20 -->
<g id="edge44" class="edge"><title>node30&#45;&gt;node20</title>
<path fill="none" stroke="black" d="M1219.44,-280.639C1234.79,-280.722 1251.23,-280.81 1266.88,-280.895"/>
<polygon fill="black" stroke="black" points="1267.01,-284.395 1277.03,-280.949 1267.05,-277.395 1267.01,-284.395"/>
</g>
<!-- node29 -->
<g id="node40" class="node"><title>node29</title>
<ellipse fill="#f00e0e" stroke="black" cx="6546.87" cy="-721.287" rx="79.3174" ry="79.3174"/>
<text text-anchor="middle" x="6546.87" y="-717.087" font-family="Times New Roman,serif" font-size="14.00">33_ACTIVE_I_P</text>
</g>
<!-- node3 -->
<g id="node66" class="node"><title>node3</title>
<ellipse fill="#f70707" stroke="black" cx="6755.14" cy="-792.287" rx="71.2307" ry="71.2307"/>
<text text-anchor="middle" x="6755.14" y="-788.087" font-family="Times New Roman,serif" font-size="14.00">34_ACTIVE_P</text>
</g>
<!-- node29&#45;&gt;node3 -->
<g id="edge45" class="edge"><title>node29&#45;&gt;node3</title>
<path fill="none" stroke="black" d="M6622.04,-746.819C6640.16,-753.053 6659.57,-759.734 6677.78,-766.003"/>
<polygon fill="black" stroke="black" points="6676.87,-769.393 6687.47,-769.338 6679.15,-762.774 6676.87,-769.393"/>
</g>
<!-- node27 -->
<g id="node42" class="node"><title>node27</title>
<ellipse fill="#2424da" stroke="black" cx="774.424" cy="-151.287" rx="63.7258" ry="63.7258"/>
<text text-anchor="middle" x="774.424" y="-147.087" font-family="Times New Roman,serif" font-size="14.00">5_EMPTY_P</text>
</g>
<!-- node28&#45;&gt;node27 -->
<g id="edge49" class="edge"><title>node28&#45;&gt;node27</title>
<path fill="none" stroke="black" d="M632.052,-292.735C658.971,-265.802 693.407,-231.347 721.553,-203.186"/>
<polygon fill="black" stroke="black" points="724.344,-205.344 728.938,-195.797 719.393,-200.396 724.344,-205.344"/>
</g>
<!-- node12 -->
<g id="node57" class="node"><title>node12</title>
<ellipse fill="#2424da" stroke="black" cx="962.324" cy="-454.287" rx="66.0743" ry="66.0743"/>
<text text-anchor="middle" x="962.324" y="-450.087" font-family="Times New Roman,serif" font-size="14.00">5_ACTIVE_P</text>
</g>
<!-- node28&#45;&gt;node12 -->
<g id="edge48" class="edge"><title>node28&#45;&gt;node12</title>
<path fill="none" stroke="black" d="M610.842,-396.248C630.665,-437.542 663.507,-489.587 710.811,-514.287 769.432,-544.895 843.915,-520.124 896.376,-493.738"/>
<polygon fill="black" stroke="black" points="898.304,-496.682 905.579,-488.98 895.089,-490.464 898.304,-496.682"/>
</g>
<!-- node7 -->
<g id="node62" class="node"><title>node7</title>
<ellipse fill="#2424da" stroke="black" cx="774.424" cy="-441.287" rx="63.7258" ry="63.7258"/>
<text text-anchor="middle" x="774.424" y="-437.087" font-family="Times New Roman,serif" font-size="14.00">5_EMPTY_P</text>
</g>
<!-- node28&#45;&gt;node7 -->
<g id="edge47" class="edge"><title>node28&#45;&gt;node7</title>
<path fill="none" stroke="black" d="M642.295,-367.928C663.38,-379.724 687.639,-393.295 709.512,-405.532"/>
<polygon fill="black" stroke="black" points="707.967,-408.678 718.402,-410.505 711.384,-402.569 707.967,-408.678"/>
</g>
<!-- node5 -->
<g id="node64" class="node"><title>node5</title>
<ellipse fill="#2424da" stroke="black" cx="774.424" cy="-296.287" rx="63.7258" ry="63.7258"/>
<text text-anchor="middle" x="774.424" y="-292.087" font-family="Times New Roman,serif" font-size="14.00">5_EMPTY_P</text>
</g>
<!-- node28&#45;&gt;node5 -->
<g id="edge46" class="edge"><title>node28&#45;&gt;node5</title>
<path fill="none" stroke="black" d="M648.91,-323.748C665.884,-320.005 684.452,-315.909 701.947,-312.051"/>
<polygon fill="black" stroke="black" points="703.091,-315.383 712.103,-309.811 701.584,-308.547 703.091,-315.383"/>
</g>
<!-- node26 -->
<g id="node43" class="node"><title>node26</title>
<ellipse fill="#2b2bd3" stroke="black" cx="962.324" cy="-280.287" rx="66.0743" ry="66.0743"/>
<text text-anchor="middle" x="962.324" y="-276.087" font-family="Times New Roman,serif" font-size="14.00">6_ACTIVE_P</text>
</g>
<!-- node27&#45;&gt;node26 -->
<g id="edge50" class="edge"><title>node27&#45;&gt;node26</title>
<path fill="none" stroke="black" d="M827.207,-187.22C849.406,-202.625 875.53,-220.753 898.796,-236.898"/>
<polygon fill="black" stroke="black" points="897.015,-239.922 907.226,-242.747 901.006,-234.171 897.015,-239.922"/>
</g>
<!-- node26&#45;&gt;node30 -->
<g id="edge51" class="edge"><title>node26&#45;&gt;node30</title>
<path fill="none" stroke="black" d="M1028.75,-280.287C1044.11,-280.287 1060.59,-280.287 1076.36,-280.287"/>
<polygon fill="black" stroke="black" points="1076.59,-283.787 1086.59,-280.287 1076.59,-276.787 1076.59,-283.787"/>
</g>
<!-- node25 -->
<g id="node44" class="node"><title>node25</title>
<ellipse fill="#6d6d91" stroke="black" cx="2752.14" cy="-208.287" rx="76.469" ry="76.469"/>
<text text-anchor="middle" x="2752.14" y="-204.087" font-family="Times New Roman,serif" font-size="14.00">15_EMPTY_I_P</text>
</g>
<!-- node24 -->
<g id="node45" class="node"><title>node24</title>
<ellipse fill="#666699" stroke="black" cx="2541.17" cy="-208.287" rx="76.469" ry="76.469"/>
<text text-anchor="middle" x="2541.17" y="-204.087" font-family="Times New Roman,serif" font-size="14.00">14_EMPTY_I_P</text>
</g>
<!-- node24&#45;&gt;node25 -->
<g id="edge52" class="edge"><title>node24&#45;&gt;node25</title>
<path fill="none" stroke="black" d="M2617.91,-208.287C2633.24,-208.287 2649.46,-208.287 2665.12,-208.287"/>
<polygon fill="black" stroke="black" points="2665.31,-211.787 2675.31,-208.287 2665.31,-204.787 2665.31,-211.787"/>
</g>
<!-- node23 -->
<g id="node46" class="node"><title>node23</title>
<ellipse fill="#5757a7" stroke="black" cx="2127.28" cy="-212.287" rx="68.3825" ry="68.3825"/>
<text text-anchor="middle" x="2127.28" y="-208.087" font-family="Times New Roman,serif" font-size="14.00">12_EMPTY_P</text>
</g>
<!-- node22 -->
<g id="node47" class="node"><title>node22</title>
<ellipse fill="#5e5ea0" stroke="black" cx="2330.2" cy="-208.287" rx="76.469" ry="76.469"/>
<text text-anchor="middle" x="2330.2" y="-204.087" font-family="Times New Roman,serif" font-size="14.00">13_EMPTY_I_P</text>
</g>
<!-- node23&#45;&gt;node22 -->
<g id="edge53" class="edge"><title>node23&#45;&gt;node22</title>
<path fill="none" stroke="black" d="M2195.74,-210.944C2210.98,-210.64 2227.37,-210.314 2243.26,-209.998"/>
<polygon fill="black" stroke="black" points="2243.68,-213.49 2253.61,-209.792 2243.54,-206.491 2243.68,-213.49"/>
</g>
<!-- node22&#45;&gt;node24 -->
<g id="edge54" class="edge"><title>node22&#45;&gt;node24</title>
<path fill="none" stroke="black" d="M2406.94,-208.287C2422.27,-208.287 2438.5,-208.287 2454.15,-208.287"/>
<polygon fill="black" stroke="black" points="2454.34,-211.787 2464.34,-208.287 2454.34,-204.787 2454.34,-211.787"/>
</g>
<!-- node21 -->
<g id="node48" class="node"><title>node21</title>
<ellipse fill="#4141bd" stroke="black" cx="1526.02" cy="-209.287" rx="63.7258" ry="63.7258"/>
<text text-anchor="middle" x="1526.02" y="-205.087" font-family="Times New Roman,serif" font-size="14.00">9_EMPTY_P</text>
</g>
<!-- node9 -->
<g id="node60" class="node"><title>node9</title>
<ellipse fill="#5050ae" stroke="black" cx="1932.39" cy="-284.287" rx="68.3825" ry="68.3825"/>
<text text-anchor="middle" x="1932.39" y="-280.087" font-family="Times New Roman,serif" font-size="14.00">11_EMPTY_P</text>
</g>
<!-- node21&#45;&gt;node9 -->
<g id="edge56" class="edge"><title>node21&#45;&gt;node9</title>
<path fill="none" stroke="black" d="M1588.88,-220.759C1660.23,-233.994 1777.6,-255.763 1854.7,-270.062"/>
<polygon fill="black" stroke="black" points="1854.36,-273.56 1864.83,-271.942 1855.64,-266.677 1854.36,-273.56"/>
</g>
<!-- node6 -->
<g id="node63" class="node"><title>node6</title>
<ellipse fill="#4848b6" stroke="black" cx="1726.79" cy="-151.287" rx="68.3825" ry="68.3825"/>
<text text-anchor="middle" x="1726.79" y="-147.087" font-family="Times New Roman,serif" font-size="14.00">10_EMPTY_P</text>
</g>
<!-- node21&#45;&gt;node6 -->
<g id="edge55" class="edge"><title>node21&#45;&gt;node6</title>
<path fill="none" stroke="black" d="M1587.2,-191.727C1607.41,-185.829 1630.2,-179.179 1651.38,-173"/>
<polygon fill="black" stroke="black" points="1652.36,-176.36 1660.98,-170.199 1650.4,-169.64 1652.36,-176.36"/>
</g>
<!-- node20&#45;&gt;node21 -->
<g id="edge58" class="edge"><title>node20&#45;&gt;node21</title>
<path fill="none" stroke="black" d="M1400.27,-258.308C1418.37,-251.196 1438.46,-243.301 1457.14,-235.961"/>
<polygon fill="black" stroke="black" points="1458.44,-239.21 1466.47,-232.295 1455.88,-232.695 1458.44,-239.21"/>
</g>
<!-- node0 -->
<g id="node69" class="node"><title>node0</title>
<ellipse fill="#4141bd" stroke="black" cx="1526.02" cy="-354.287" rx="63.7258" ry="63.7258"/>
<text text-anchor="middle" x="1526.02" y="-350.087" font-family="Times New Roman,serif" font-size="14.00">9_EMPTY_P</text>
</g>
<!-- node20&#45;&gt;node0 -->
<g id="edge57" class="edge"><title>node20&#45;&gt;node0</title>
<path fill="none" stroke="black" d="M1400.27,-304.585C1418.46,-311.831 1438.66,-319.88 1457.42,-327.353"/>
<polygon fill="black" stroke="black" points="1456.2,-330.635 1466.79,-331.085 1458.79,-324.132 1456.2,-330.635"/>
</g>
<!-- node19&#45;&gt;node29 -->
<g id="edge59" class="edge"><title>node19&#45;&gt;node29</title>
<path fill="none" stroke="black" d="M6397.9,-618.089C6421.07,-634.246 6448.28,-653.225 6473.01,-670.472"/>
<polygon fill="black" stroke="black" points="6471.08,-673.398 6481.29,-676.247 6475.09,-667.656 6471.08,-673.398"/>
</g>
<!-- node16 -->
<g id="node53" class="node"><title>node16</title>
<ellipse fill="#74748a" stroke="black" cx="3174.08" cy="-442.287" rx="76.469" ry="76.469"/>
<text text-anchor="middle" x="3174.08" y="-438.087" font-family="Times New Roman,serif" font-size="14.00">16_EMPTY_I_P</text>
</g>
<!-- node18&#45;&gt;node16 -->
<g id="edge60" class="edge"><title>node18&#45;&gt;node16</title>
<path fill="none" stroke="black" d="M2820.61,-442.287C2892.95,-442.287 3008,-442.287 3086.86,-442.287"/>
<polygon fill="black" stroke="black" points="3087.25,-445.787 3097.25,-442.287 3087.25,-438.787 3087.25,-445.787"/>
</g>
<!-- node17 -->
<g id="node52" class="node"><title>node17</title>
<ellipse fill="#7b7b83" stroke="black" cx="3387.72" cy="-442.287" rx="79.3174" ry="79.3174"/>
<text text-anchor="middle" x="3387.72" y="-438.087" font-family="Times New Roman,serif" font-size="14.00">17_ACTIVE_I_P</text>
</g>
<!-- node17&#45;&gt;node19 -->
<g id="edge61" class="edge"><title>node17&#45;&gt;node19</title>
<path fill="none" stroke="black" d="M3464.46,-422.329C3548.56,-401.951 3688.67,-373.287 3811.33,-373.287 3811.33,-373.287 3811.33,-373.287 5923.02,-373.287 6052.99,-373.287 6102.2,-327.431 6214.82,-392.287 6258.92,-417.678 6290.6,-465.589 6311.1,-506.557"/>
<polygon fill="black" stroke="black" points="6308.03,-508.259 6315.55,-515.72 6314.33,-505.197 6308.03,-508.259"/>
</g>
<!-- node16&#45;&gt;node17 -->
<g id="edge62" class="edge"><title>node16&#45;&gt;node17</title>
<path fill="none" stroke="black" d="M3250.59,-442.287C3265.98,-442.287 3282.3,-442.287 3298.09,-442.287"/>
<polygon fill="black" stroke="black" points="3298.38,-445.787 3308.38,-442.287 3298.38,-438.787 3298.38,-445.787"/>
</g>
<!-- node15 -->
<g id="node54" class="node"><title>node15</title>
<ellipse fill="#0707f7" stroke="black" cx="2541.17" cy="-432.287" rx="53.3322" ry="53.3322"/>
<text text-anchor="middle" x="2541.17" y="-428.087" font-family="Times New Roman,serif" font-size="14.00">1_EMPTY</text>
</g>
<!-- node15&#45;&gt;node18 -->
<g id="edge63" class="edge"><title>node15&#45;&gt;node18</title>
<path fill="none" stroke="black" d="M2594.63,-434.797C2618.43,-435.936 2647.07,-437.307 2673.3,-438.562"/>
<polygon fill="black" stroke="black" points="2673.45,-442.073 2683.61,-439.055 2673.79,-435.081 2673.45,-442.073"/>
</g>
<!-- node14 -->
<g id="node55" class="node"><title>node14</title>
<ellipse fill="#0707f7" stroke="black" cx="6135.67" cy="-579.287" rx="53.3322" ry="53.3322"/>
<text text-anchor="middle" x="6135.67" y="-575.087" font-family="Times New Roman,serif" font-size="14.00">1_EMPTY</text>
</g>
<!-- node14&#45;&gt;node19 -->
<g id="edge64" class="edge"><title>node14&#45;&gt;node19</title>
<path fill="none" stroke="black" d="M6189.1,-579.287C6211.47,-579.287 6238.03,-579.287 6262.6,-579.287"/>
<polygon fill="black" stroke="black" points="6262.63,-582.787 6272.63,-579.287 6262.63,-575.787 6262.63,-582.787"/>
</g>
<!-- node13 -->
<g id="node56" class="node"><title>node13</title>
<ellipse fill="#0707f7" stroke="black" cx="6135.67" cy="-454.287" rx="53.3322" ry="53.3322"/>
<text text-anchor="middle" x="6135.67" y="-450.087" font-family="Times New Roman,serif" font-size="14.00">1_EMPTY</text>
</g>
<!-- node13&#45;&gt;node19 -->
<g id="edge65" class="edge"><title>node13&#45;&gt;node19</title>
<path fill="none" stroke="black" d="M6181.6,-481.873C6208.67,-498.494 6243.64,-519.966 6273.86,-538.519"/>
<polygon fill="black" stroke="black" points="6272.31,-541.671 6282.66,-543.92 6275.97,-535.706 6272.31,-541.671"/>
</g>
<!-- node12&#45;&gt;node20 -->
<g id="edge66" class="edge"><title>node12&#45;&gt;node20</title>
<path fill="none" stroke="black" d="M1025.4,-433.819C1078.06,-415.624 1155.05,-387.041 1219.18,-355.287 1239.14,-345.406 1260.09,-333.245 1278.82,-321.657"/>
<polygon fill="black" stroke="black" points="1280.91,-324.474 1287.54,-316.206 1277.2,-318.538 1280.91,-324.474"/>
</g>
<!-- node10 -->
<g id="node59" class="node"><title>node10</title>
<ellipse fill="#666699" stroke="black" cx="2963.11" cy="-338.287" rx="71.2307" ry="71.2307"/>
<text text-anchor="middle" x="2963.11" y="-334.087" font-family="Times New Roman,serif" font-size="14.00">14_ACTIVE_P</text>
</g>
<!-- node11&#45;&gt;node10 -->
<g id="edge67" class="edge"><title>node11&#45;&gt;node10</title>
<path fill="none" stroke="black" d="M2398.72,-367.755C2515.75,-361.634 2755.77,-349.08 2881.4,-342.509"/>
<polygon fill="black" stroke="black" points="2881.91,-345.986 2891.71,-341.969 2881.55,-338.996 2881.91,-345.986"/>
</g>
<!-- node10&#45;&gt;node19 -->
<g id="edge68" class="edge"><title>node10&#45;&gt;node19</title>
<path fill="none" stroke="black" d="M3034.4,-337.483C3118.26,-336.594 3262.72,-335.287 3386.72,-335.287 3386.72,-335.287 3386.72,-335.287 5923.02,-335.287 6052.99,-335.287 6104.96,-284.854 6214.82,-354.287 6267.92,-387.844 6300.52,-452.303 6319.12,-503.657"/>
<polygon fill="black" stroke="black" points="6315.93,-505.135 6322.54,-513.411 6322.53,-502.816 6315.93,-505.135"/>
</g>
<!-- node9&#45;&gt;node35 -->
<g id="edge70" class="edge"><title>node9&#45;&gt;node35</title>
<path fill="none" stroke="black" d="M1994.95,-312.053C2014.18,-320.725 2035.54,-330.361 2055.36,-339.299"/>
<polygon fill="black" stroke="black" points="2054.08,-342.564 2064.64,-343.486 2056.96,-336.183 2054.08,-342.564"/>
</g>
<!-- node9&#45;&gt;node23 -->
<g id="edge69" class="edge"><title>node9&#45;&gt;node23</title>
<path fill="none" stroke="black" d="M1996.82,-260.612C2014.86,-253.875 2034.66,-246.484 2053.23,-239.553"/>
<polygon fill="black" stroke="black" points="2054.67,-242.752 2062.81,-235.976 2052.22,-236.194 2054.67,-242.752"/>
</g>
<!-- node8 -->
<g id="node61" class="node"><title>node8</title>
<ellipse fill="#4848b6" stroke="black" cx="1726.79" cy="-354.287" rx="79.3174" ry="79.3174"/>
<text text-anchor="middle" x="1726.79" y="-350.087" font-family="Times New Roman,serif" font-size="14.00">10_ACTIVE_I_P</text>
</g>
<!-- node8&#45;&gt;node9 -->
<g id="edge71" class="edge"><title>node8&#45;&gt;node9</title>
<path fill="none" stroke="black" d="M1801.87,-328.817C1820.09,-322.554 1839.59,-315.851 1857.78,-309.596"/>
<polygon fill="black" stroke="black" points="1859.13,-312.833 1867.45,-306.272 1856.85,-306.214 1859.13,-312.833"/>
</g>
<!-- node4&#45;&gt;node20 -->
<g id="edge72" class="edge"><title>node4&#45;&gt;node20</title>
<path fill="none" stroke="black" d="M652.491,-57.7215C740.135,-48.5296 900.076,-40.1581 1028.61,-80.2868 1128.2,-111.379 1226.53,-183.774 1285.2,-232.643"/>
<polygon fill="black" stroke="black" points="1282.96,-235.326 1292.86,-239.078 1287.46,-229.966 1282.96,-235.326"/>
</g>
<!-- node3&#45;&gt;node68 -->
<g id="edge73" class="edge"><title>node3&#45;&gt;node68</title>
<path fill="none" stroke="black" d="M6809.32,-838.515C6835.16,-860.977 6866.28,-888.035 6892.83,-911.117"/>
<polygon fill="black" stroke="black" points="6890.71,-913.908 6900.55,-917.827 6895.3,-908.625 6890.71,-913.908"/>
</g>
<!-- node2 -->
<g id="node67" class="node"><title>node2</title>
<ellipse fill="#0707f7" stroke="black" cx="6546.87" cy="-570.287" rx="53.3322" ry="53.3322"/>
<text text-anchor="middle" x="6546.87" y="-566.087" font-family="Times New Roman,serif" font-size="14.00">1_EMPTY</text>
</g>
<!-- node2&#45;&gt;node3 -->
<g id="edge74" class="edge"><title>node2&#45;&gt;node3</title>
<path fill="none" stroke="black" d="M6590.25,-601.734C6602.27,-611.361 6615.06,-622.318 6626.02,-633.287 6654.78,-662.045 6683.49,-696.957 6706.42,-726.732"/>
<polygon fill="black" stroke="black" points="6703.87,-729.167 6712.73,-734.985 6709.43,-724.915 6703.87,-729.167"/>
</g>
<!-- node1 -->
<g id="node68" class="node"><title>node1</title>
<ellipse fill="#0707f7" stroke="black" cx="6546.87" cy="-872.287" rx="53.3322" ry="53.3322"/>
<text text-anchor="middle" x="6546.87" y="-868.087" font-family="Times New Roman,serif" font-size="14.00">1_EMPTY</text>
</g>
<!-- node1&#45;&gt;node3 -->
<g id="edge75" class="edge"><title>node1&#45;&gt;node3</title>
<path fill="none" stroke="black" d="M6597.01,-853.226C6621.53,-843.718 6651.71,-832.011 6679.05,-821.408"/>
<polygon fill="black" stroke="black" points="6680.53,-824.588 6688.59,-817.709 6678,-818.062 6680.53,-824.588"/>
</g>
<!-- node0&#45;&gt;node8 -->
<g id="edge76" class="edge"><title>node0&#45;&gt;node8</title>
<path fill="none" stroke="black" d="M1589.64,-354.287C1604.67,-354.287 1621.01,-354.287 1636.97,-354.287"/>
<polygon fill="black" stroke="black" points="1637.39,-357.787 1647.39,-354.287 1637.39,-350.787 1637.39,-357.787"/>
</g>
</g>
</svg>
